<?xml version="1.0" encoding="utf-8"?>
<!-- Generator: Adobe Illustrator 16.0.0, SVG Export Plug-In . SVG Version: 6.00 Build 0)  -->
<!DOCTYPE svg PUBLIC "-//W3C//DTD SVG 1.1//EN" "http://www.w3.org/Graphics/SVG/1.1/DTD/svg11.dtd">
<svg version="1.1" id="India" xmlns="http://www.w3.org/2000/svg" xmlns:xlink="http://www.w3.org/1999/xlink" x="0px" y="0px"
	 width="368.737px" height="375.316px" viewBox="235.391 101.315 368.737 375.316"
	 enable-background="new 235.391 101.315 368.737 375.316" xml:space="preserve">
<path fill="#FFFBDC" d="M373.291,462.37l-0.095-0.057l-0.065,0.053l0.034,0.059l0.07-0.031l0.094,0.047l0.111,0.049l0.063-0.043
	l-0.135-0.061L373.291,462.37z M487.487,297.197l-0.375,0.688l-0.492,1.395l-0.084,0.33l-0.022,0.174l0.011,0.141l0.111,0.215
	l0.145,0.066l0.355,0.004l0.34,0.117l0.145,0.025l0.118-0.059l0.085-0.182l-0.019-0.189l-0.154-0.367l0.391-0.277l0.045-0.811
	l-0.255-1.411L487.487,297.197z M487.304,297.174l0.252-0.372l0.095-0.429l-0.171-0.333l-0.165-0.035l-0.145,0.131l-0.122,0.222
	l-0.092,0.229l-0.046,0.169l-0.034,0.25l0.016,0.229l0.109,0.1L487.304,297.174z M497.364,300.967l-0.172-0.125l-0.196-0.08
	l-0.4-0.248l-0.133,0.492l0.104,0.613l0.297,0.113l0.217-0.086l0.207,0.02l0.152-0.031l0.072-0.236l-0.033-0.252L497.364,300.967z
	 M494.183,296.278l-0.172,0.082l-0.251,0.315l-0.228,0.381l-0.153,0.363l-0.021,0.099l0.004,0.124l0.072,0.186l0.016,0.114
	l0.099,0.009l0.458,0.149l0.13,0.063l0.035-0.734l0.076-0.328l0.149-0.322l0.045-0.229l-0.091-0.188L494.183,296.278z
	 M604.036,211.824l-0.612-0.663l-0.174-0.362l0.076-0.486l0.378-0.866l-0.064-0.392l-0.485-0.258l-0.704-0.556l-0.109-0.125
	l-0.13-0.353l-0.096-0.049l-0.123,0.003l-0.132-0.053l-0.85-0.735l-0.466-0.124l-0.572,0.258l-0.45,0.286l-0.397,0.094l-0.406-0.088
	l-0.453-0.258l-0.474-0.146l-0.974,0.057l-0.467-0.232l-0.477-0.576l-0.849-0.587l-0.206-0.045l-0.52,0.017l-0.232,0.042
	l-0.249,0.111l-0.42,0.303l-0.215,0.105l-0.538,0.009l-0.224,0.08l-0.191,0.164l-0.169,0.242l-0.202,0.454l-0.123,0.051
	l-0.247-0.123l-0.084-0.089l-0.123-0.224l-0.103-0.078l-0.107-0.009l-0.374,0.083l-0.198-0.074l-0.149-0.143l-0.164-0.116
	l-0.247,0.002l0.323-0.27l0.494-0.292l0.396-0.332l0.042-0.379l-0.003-0.002l-0.286-0.52l0.244-0.264l0.37-0.211l0.093-0.355
	l0.274,0.068l0.286-0.133l0.252-0.249l0.168-0.273l0.062-0.328l-0.051-0.224l0.028-0.16l1.442-0.689l0.337-0.425l-0.199-0.725
	l-0.668-0.8l-0.164-0.303l-0.129-0.628l-0.104-0.27l-0.222-0.2l-0.183-0.02l-0.104-0.102l-0.011-0.156l0.08-0.191l0.217-0.609
	l0.055-0.09l0.04-0.098l0.035-0.105l0.02-0.103h-0.038l-0.111,0.019l-1.963,0.554l-0.515,0.43l-0.004,0.003l-0.944,1.084
	l-0.55,0.308l-0.367-0.358l0.021-0.331l0.293-0.499l-0.053-0.325l-0.287-0.616l-0.184-0.261l-0.256-0.14l0.654-0.183l0.201-0.12
	l0.164-0.2l0.114-0.214l0.127-0.189l0.21-0.127l1.341-0.374l0.138-0.124l0.191-0.434l0.309-0.483l-0.008-0.188l-0.206-0.245
	l-0.165-0.079l-0.176,0.068l-0.24,0.197l-0.458,0.282l-0.408,0.008l-0.378-0.226l-0.366-0.425l-0.131-0.241l-0.19-0.733
	l-0.114-0.206l-0.344-0.45l-0.164-0.158l-0.174-0.224l-0.152-0.272l-0.179-0.209l-0.249-0.024l-0.232,0.121l-0.614,0.499
	l-0.657,0.345l-0.207,0.045l-0.473-0.014l-0.248,0.058l-0.673,0.508l-0.244,0.105l-0.401,0.074l-0.21,0.105l-0.105,0.108
	l-0.182,0.279l-0.114,0.108l-0.122,0.026l-0.142-0.006l-0.125,0.017l-0.222,0.3l-0.229,0.162l-0.474,0.208l-0.135,0.032
	l-0.111,0.004l-0.106,0.023l-0.134,0.095l-0.038,0.125l0.015,0.146l-0.023,0.11l-0.438,0.043l-0.042,0.171l0.133,0.522l-0.016,0.336
	l-0.125,0.086l-0.463-0.071l-0.106,0.201l-0.104,0.548l-0.095,0.255l-0.181,0.241l-0.214,0.152l-0.244,0.081l-0.282,0.029
	l-0.492-0.036l-0.241-0.066l-0.481-0.197l-0.714-0.096l-0.106-0.082l-0.031-0.116L577,196.689l-0.062-0.111l-0.103-0.067
	l-0.104-0.037l-0.943-0.162l-0.225-0.082l-0.647-0.388l-0.74-0.189l-0.213-0.088l-0.223-0.129l0.127,0.272l0.218,0.245l0.079,0.126
	l-0.281-0.084l-0.94-0.436l-0.47-0.137l-0.488,0.016l-0.21,0.034l-0.279-0.002l-0.191-0.116l0.077-0.563l-0.142-0.24l-0.658-0.779
	l-0.45-0.316l-0.48-0.184l-0.386,0.04l-0.217,0.198l-0.682,1.031l-0.175,0.147l-0.211,0.084l-0.293,0.063l-0.665,0.004l-0.324,0.049
	l-0.298,0.155l-0.131,0.158l-0.206,0.377l-0.133,0.135l-0.148,0.053l-0.459-0.028l-0.587,0.324l-1.274,1.877l-0.389,0.362
	l-0.191,0.057l-0.286-0.032l-0.478-0.12l-0.205,0.045l-0.119,0.24l0.016,0.271l0.213,0.529l0.072,0.261l-0.06,0.26l-0.194,0.161
	l-0.249,0.12l-0.214,0.139l-0.191-0.027l-0.268,0.003l-0.251,0.049l-0.146,0.114l-0.004,0.111l0.038,0.083l0.026,0.08l-0.042,0.113
	l-0.111,0.042l-0.152,0.002l-0.134,0.039l-0.045,0.149l-0.1,0.096l-0.741,0.232l-0.195,0.116l-0.87,0.779l-0.213,0.067l-0.207-0.104
	l-0.184-0.056l-0.191,0.136l-0.202,0.191l-0.229,0.113l-0.229,0.002l-0.699-0.097l-1.332,0.1l-0.997,0.259l-0.176,0.017
	l-0.161-0.012l-0.331-0.079l-0.181-0.009l-0.111,0.068l-0.099,0.1l-0.13,0.093l-0.16,0.036l-0.36,0.013l-0.152,0.042l-0.156,0.107
	l-0.049,0.109l-0.008,0.141l-0.034,0.196l-0.455,1.049l-0.111,0.4l-0.072,0.476l-0.168,0.529l-0.247,0.483l-0.3,0.341l-1.164,0.826
	l-0.324,0.376l-0.188,0.174l-0.48,0.165l-0.229,0.127l-0.182,0.198l-0.305,0.437l-0.19,0.188l-0.195,0.12l-0.19,0.061l-0.184,0.018
	l-0.19-0.013l-0.062-0.063l-0.03-0.107l-0.047-0.071l-0.114,0.053l-0.787,0.523l-0.365,0.319l-0.303,0.387l-0.222,0.481l0.021,0.208
	l0.194,0.077l0.442,0.052l0.152,0.15v0.179l-0.132,0.43v0.001h0.003v0.001l-0.042,0.385l-0.321,0.408l-0.428,0.332l-0.352,0.155
	l-0.305,0.055l-0.153,0.082l-0.332,0.37l-0.184,0.13l-0.61,0.189l-0.456,0.332l-0.145,0.03l-0.131-0.111l-0.16-0.354l-0.148-0.031
	l-0.149,0.193l-0.067,0.304l-0.097,0.245l-0.225,0.019l-0.129-0.185l-0.065-0.223l-0.069-0.023l-0.148,0.416l-0.173,0.247
	l-0.191-0.097l-0.168-0.265l-0.213-0.517l-0.114-0.205l-0.123-0.039l-0.13,0.228l-0.004,0.14l0.05,0.129l0.023,0.13l-0.073,0.149
	l-0.095,0.047l-0.145,0.016l-1.055-0.092l-0.252,0.026l-0.466,0.24l-0.722,0.748l-0.47,0.208l-0.292,0.026l-0.545-0.1l-0.554,0.026
	l-0.196-0.075l-0.438-0.272l-0.516-0.133l-1.779,0.062l-0.078,0.61l-0.592,0.83l-0.083,0.542l0.274,1.039l0.119,0.202l0.359,0.29
	l0.109,0.237l0.199,0.223l0.29,0.089l0.31,0.059l0.278,0.124l0.21,0.295l0.016,0.217l0.065,0.108l0.374-0.039l0.981-0.342
	l0.34-0.058l0.461,0.029l0.161-0.058l0.375-0.279l0.149-0.05l0.277,0.336l1.108,2.042l0.05,0.167l-0.088,0.243l-0.394,0.336
	l-0.176,0.21l-0.045,0.128l-0.043,0.267l-0.034,0.123l-0.072,0.111l-0.164,0.176l-0.069,0.096l-0.088,0.205l-0.064,0.244l-0.04,0.26
	v0.259l0.154,0.458l0.626,0.63l0.223,0.449v0.002l0.212,0.81l-0.14,0.696l-0.467,0.463l-0.767,0.116l-0.223-0.106l-0.4-0.344
	l-0.222-0.092l-0.191,0.055l0.031,0.183v0.208l-0.271,0.13l0.15,0.188l0.014,0.231l-0.106,0.159l-0.195-0.024l-0.134-0.193
	l-0.039-0.227l-0.067-0.206l-0.241-0.129l-0.373,0.07l-0.807,0.525l-0.371,0.179l-0.61,0.078l-0.198-0.014l-0.559-0.166
	l-0.229,0.008l-0.458,0.16l-0.237,0.016l-0.164-0.145l-0.29-0.629l-0.118-0.182l-0.185-0.053l-0.512-0.031l-0.172,0.029
	l-0.225,0.155l-0.134,0.221l-0.1,0.255l-0.149,0.26l-0.159,0.162l-0.194,0.129l-0.215,0.095l-0.211,0.058l-0.259,0.008l-0.175-0.07
	l-0.376-0.226l-0.431-0.101l-0.898,0.021l-0.442-0.056l-0.377,0.003l-0.692,0.316l-3.662,0.212l-1.632-0.183l-1.42-0.737
	l-1.169-0.834l-0.427-0.068l-0.257,0.084l-0.179,0.145l-0.169,0.169l-0.207,0.159l-0.232,0.077l-0.467-0.019l-0.229,0.019
	l-0.424,0.274l-0.316,0.848l-0.318,0.287l-0.479,0.137l-1.437,0.138l-0.798,0.212l-0.271,0.027l-0.131-0.019l-0.255-0.08
	l-0.114-0.018l-0.05-0.023l-0.1-0.089l-0.054-0.006l-0.064,0.056l-0.027,0.073l-0.003,0.063l-0.008,0.032v0.03l-0.021,0.082
	l-0.037,0.093l-0.062,0.068h-0.046l-0.122-0.05l-0.05-0.011l-0.5,0.004l-0.274-0.043l-0.676-0.298l-0.275-0.013l-0.443,0.183
	l-0.233,0.003l-0.152-0.121l0.198-0.39l-0.025-0.245l-0.318-0.253l-0.501-0.189l-0.518-0.087l-0.787,0.094l-0.45-0.231l-0.829-0.576
	l-0.523,0.14l-0.172-0.008l-0.164,0.016l-0.135,0.105l-0.129,0.136l-0.148,0.098l-0.352,0.095l-0.36,0.034l-0.71-0.041l-0.401-0.112
	l-0.176-0.206l-0.104-0.287l-0.171-0.353l-0.199-0.219l-0.294-0.22l-0.316-0.142l-0.269,0.015l-0.121,0.087l-0.143,0.041
	l-0.147-0.016l-0.13-0.077l-0.088-0.142v-0.137l0.019-0.145l-0.03-0.174l-0.226-0.273l-0.257,0.03l-0.243,0.207l-0.194,0.266
	l-0.077-0.695v-0.771l-0.061-0.364l-0.165-0.318l-0.282-0.213l-0.79-0.419l-0.161-0.116l0.106-0.406l0.202-0.463l0.271-0.398
	l0.318-0.22l0.759-0.197l0.295-0.225l0.099-0.412l-0.352-0.239l-0.161-0.14l-0.267-0.353l-0.137-0.089l-0.145-0.068l-0.164-0.105
	l-0.276-0.319l-0.172-0.375l-0.069-0.413l0.035-0.434l0.004-0.235l-0.198-0.286l-0.008-0.198l0.087-0.204l0.245-0.37l0.199-0.508
	l0.282-0.469l0.611-2.674l0.012-0.221l-0.042-0.254l-0.112-0.217l-0.301-0.323l-0.103-0.179l-0.013-0.237l0.127-0.465l-0.026-0.248
	v-0.003h-0.004l-0.185-0.229l-0.285-0.247l-0.563-0.383l-0.321-0.096l-0.732-0.105l-0.259-0.197l-0.268-0.321l-0.207-0.011
	l-0.52,0.407l-0.277,0.271l-0.173,0.275l-0.19,0.153l-0.337-0.104l-0.248,0.067l-0.707,0.521v0.003l-0.264,0.171l-2.284,0.346
	l-0.29,0.121l-0.147,0.041l-0.15-0.005l-0.309-0.045l-0.142,0.045l-0.199,0.268l-0.029,0.346l0.094,0.345l0.168,0.268l0.313,0.073
	l0.169,0.063l0.103,0.084l0.026,0.166l-0.152,0.263l0.065,0.582l-0.134,0.361l-0.179,0.363l-0.306,1.184l-0.783,1.334l-0.321,0.714
	l-0.016,0.151l0.016,0.136l0.061,0.276l0.035,0.062l0.111,0.118l0.025,0.062l-0.029,0.121l-0.059,0.079l-0.064,0.072l-0.05,0.095
	l-0.106,0.322l-0.03,0.158l0.01,0.195l0.06,0.155l0.155,0.274l0.031,0.161l-0.077,0.346l-0.5,1.125l-0.05,0.989l-0.184,0.41
	l-0.022,0.119l0.02,0.114l0.06,0.107l0.199,0.192l0.229,0.507l0.23,0.145l0.195,0.089l0.164,0.154l0.263,0.37l0.253,0.457
	l0.189,0.493l0.107,0.217l0.283,0.429l0.106,0.22l0.05,0.242l0.051,0.605l0.109,0.558l0.016,0.266l-0.019,0.266l-0.054,0.279
	l-0.21,0.617l-0.569,1.113l-0.274,0.903l-0.008,0.143l0.038,0.173v0.002l-0.104,0.573l-0.374,0.678l-0.479,0.5l-0.394,0.047
	l-0.179-0.174l-0.408-0.245l-0.18-0.166l-0.077-0.135l-0.083-0.245l-0.057-0.114l-0.034,0.007l-0.303-0.249l-0.011-0.054
	l-0.226,0.055l-0.383,0.324l-0.217,0.002l-0.233-0.121l-0.215-0.077l-0.164,0.063l-0.082,0.297l-0.093,0.213l-0.184,0.094
	l-0.21-0.026l-0.169-0.15l-0.205-0.111l-0.274,0.093l-0.448,0.345l-0.469,0.209l-0.439-0.122l-0.904-0.515l-0.391-0.072
	l-0.417,0.022l-0.407,0.117l-0.352,0.209l-0.142,0.201l-0.236,0.505l-0.157,0.134l-0.169-0.032l-0.53-0.237l-0.167-0.103
	l-0.111-0.181l-0.088-0.217l-0.13-0.131l-0.391,0.119l-0.671,0.076l-0.363-0.149l-0.289-0.383l-0.212-0.472l-0.125-0.409h-0.005
	v-0.002l-0.145-0.692l-0.004-0.237l-0.041-0.266l-0.142,0.005l-0.185,0.151l-0.381,0.397l-0.161,0.122l-0.824,0.288l-0.394,0.231
	l-0.13,0.316l-0.245,0.277l-0.31,0.205l-0.321,0.092l-0.114-0.021l-0.445-0.176l-0.173,0.026l-0.096,0.14l-0.083,0.166l-0.135,0.102
	l-0.229-0.049l-0.883-0.535l-0.852-0.39l-0.252-0.151h-0.004l-0.167-0.199l-0.173-0.155l-0.199-0.108l-0.244-0.059l-0.389-0.156
	l-0.771-0.417l-0.378-0.137h-0.111l-0.274,0.034l-0.088-0.01l-0.089-0.1l-0.008-0.199l-0.091-0.096l-0.215-0.042l-0.267,0.042
	l-0.48,0.163l-0.279,0.18l-0.089,0.027l-0.133-0.025l-0.077-0.058l-0.06-0.066l-0.085-0.047l-0.191-0.056l-0.1-0.012l-0.285,0.017
	l-0.08-0.032l-0.064-0.059l-0.872-0.544l-0.381-0.126l-0.451,0.142l-0.298,0.033l-0.217,0.129l-0.864,0.743l-0.271,0.161
	l-0.207,0.034l-0.088-0.079l-0.022-0.111l-0.004-0.122l-0.022-0.117l-0.101-0.09l-0.122,0.032l-0.126,0.053l-0.115-0.032
	l-0.679-0.538l-0.181-0.22l-0.133-0.495l0.092-1.04l-0.1-0.48l-0.175-0.214l-0.99-0.55l-0.138-0.047l-0.996,0.393l-0.555,0.298
	l-0.453,0.246l-0.229,0.071l-0.233-0.07l-0.219-0.012l-0.209,0.19l-0.202,0.245l-0.202,0.152l-0.439,0.132l-0.192,0.005
	l-1.164-0.308l-0.366-0.385l-0.003-0.485l-0.043-0.425l-0.496-0.208l-0.287,0.032l-0.707,0.279l-0.321-0.029l-0.022-0.189
	l0.015-0.213l-0.217-0.11l-0.16-0.021l-0.156-0.045l-0.29-0.15l-0.108-0.255l-0.072-0.295l-0.183-0.269l-0.282-0.162l-0.631-0.209
	l-0.293-0.179l-0.005-0.002l-0.132-0.221l-0.197-0.045l-0.209,0.077l-0.169,0.13l-0.145,0.001l-1.521-0.413l-0.16-0.115
	l-0.076-0.303l0.114-0.322l0.181-0.321l0.121-0.307l0.069-0.561l-0.027-0.541l-0.118-0.526l-0.205-0.514l-0.321-0.471l-0.372-0.263
	l-3.631-0.665l-0.274-0.176l-0.237-0.338l-0.122-0.264l-0.173-0.132l-0.382,0.063l-0.117-0.037l-0.138-0.344l-0.115-0.13
	l-0.307-0.123l-0.132-0.079l-0.119-0.121l-0.058-0.26l-0.222-0.051l-0.251,0.104l-0.643,0.79l-0.267,0.183l-0.401,0.016
	l-0.505-0.089l-0.16-0.055l-0.293,0.085l-0.585,0.041l-0.244,0.098l0.106,0.226l0.359,0.405l0.03,0.131l0.054,0.145l-0.004,0.116
	l-0.126,0.047l-0.073,0.054l-0.091,0.133l-0.08-0.083l-0.582-0.211l-1.749-0.937l-0.919-0.345l-1.382-0.185l-1.189-0.01
	l-0.329,0.117l-0.06,0.137l-0.027,0.173l0.022,0.164l0.191,0.262l-0.015,0.17l-0.088,0.177l-0.271,0.406l-0.214,0.214l-0.244,0.14
	l-0.283,0.013l-0.291-0.101l-0.124-0.141l-0.08-0.199l-0.147-0.27l-0.156-0.178l-0.626-0.528l-0.466-0.186l-1.543,0.012
	l-0.799-0.198l-0.58-0.326l-0.313-0.1l-1.565-0.105l-0.282-0.329l-0.139-0.537l-0.121-1.06l-0.152-0.546l-0.223-0.353l-0.348-0.139
	l-1.588,0.411l-1.081,0.123l-0.488-0.152l-0.68-0.693l-0.979-0.488l-1.509-1.246l-0.549-0.216l-0.215-0.125l-0.237-0.251
	l-0.251-0.216l-0.311-0.103l-0.646-0.063l-0.373,0.163l-0.508,0.601l-0.291,0.2l-0.349-0.026l-0.347-0.209l-0.351-0.262
	l-0.632-0.363l-0.503-0.537l-0.268-0.224l-0.298-0.108l-0.638-0.149l-0.249-0.19v-0.001l-0.002-0.002l-0.161-0.262l-0.257-0.181
	l-1.118-0.575l-0.191-0.155l-0.055-0.133l-0.01-0.147l-0.063-0.206l-0.164-0.261l-0.225-0.246l-0.267-0.194l-0.291-0.103
	l-0.191,0.026l-0.085,0.13l-0.052,0.177l-0.114,0.167l-0.181,0.092l-0.209,0.034l-0.139-0.063l0.039-0.202l-0.206-0.052
	l-0.076-0.109l0.049-0.116l0.19-0.079l-0.171-0.345l-0.733-0.842l-0.172-0.397l-0.256-0.848l-0.261-0.332l-0.293-0.155l-1.845-0.353
	l-0.092-0.155l-0.023-0.178l-0.042-0.153l-0.148-0.085l-0.195,0.067l-0.245-0.007l-0.25-0.05l-0.203-0.066l-0.232-0.171l-0.062-0.2
	l-0.019-0.216l-0.104-0.212l-0.182-0.079l-0.518-0.003l-0.232-0.044l-0.211-0.129l-0.481-0.503l-0.21-0.14l-0.393-0.112
	l-0.219-0.102l-0.129-0.167l-0.254-0.478l-0.16-0.115l-0.469-0.085l-0.215-0.073l-0.224-0.116l-0.085-0.115l0.008-0.134l0.019-0.124
	l-0.042-0.084l-0.48-0.016l-0.252,0.143l-0.127,0.195l-0.034,0.246l0.106,0.91l-0.061,0.189l-0.248-0.134l-0.535-0.642l-0.229-0.137
	l-0.254-0.013l-0.242,0.065l-0.244,0.035l-0.254-0.103l-0.141-0.182l-0.347-0.709l-0.097-0.081l-0.229-0.057l-0.103-0.05
	l-0.096-0.106l-0.133-0.229l-0.068-0.094l-0.215-0.131l-0.446-0.078l-0.241-0.084l-0.184-0.145l-0.42-0.562l-0.408-0.241
	l-0.341-0.068l-0.233-0.185l-0.075-0.583l0.011-0.288l0.034-0.261l0.085-0.242l0.156-0.234l0.195-0.155l0.211-0.108l0.178-0.14
	l0.107-0.25v-0.001l-0.038-0.473l0.104-0.639l0.246-0.546l0.391-0.189l0.213,0.03l0.264,0.001l0.246-0.07l0.156-0.191l-0.034-0.223
	l-0.21-0.6l0.064-0.209l0.218-0.029l0.156,0.125l0.122,0.028l0.26-0.944l0.051-0.334l-0.035-0.271l-0.092-0.081l-0.115,0.006
	l-0.11-0.02l-0.069-0.147l-0.092-0.583l-0.266-0.473l-0.092-0.241l0.049-0.255l0.133-0.103l0.367-0.12l0.076-0.133l0.039-0.186
	l0.084-0.095l0.115-0.082l0.113-0.147l0.005-0.002l0.251-0.192l0.107-0.112l0.092-0.13l0.004-0.074l-0.031-0.08l-0.02-0.088
	l0.047-0.1l0.068-0.056l0.156-0.085l0.074-0.054l0.281-0.319l0.152-0.297l0.02-0.317l-0.119-0.379l-0.172-0.386l-0.118-0.365
	l-0.003-0.366l0.188-0.4l0.331-0.271l0.753-0.201l0.268-0.225l0.645-0.814l0.283-0.454l0.169-0.521l0.106-0.247l0.187-0.106
	l0.456-0.059l0.238-0.077l0.16-0.104l0.33-0.311l0.449-0.308l0.127-0.137l0.378-0.608l0.177-0.185l0.759-0.578l0.249-0.38
	l-0.164-0.388l0.176-0.172l0.221-0.266l0.199-0.147l0.127,0.179l0.122,0.256l0.218,0.055l0.852-0.289l0.1-0.006l0.041,0.037
	l0.023-0.066l0.025-0.2l-0.088-0.205l-0.255-0.412l-0.408-0.217l-0.967-0.268l-1.077-0.472l-0.184-0.151l-0.156-0.209l-0.244-0.471
	l-0.156-0.202l-0.359-0.286l-1.242-0.7l-0.263-0.094l-0.194,0.016l-0.188,0.06l-0.253,0.036l-0.212-0.056l-0.414-0.263l-0.637-0.253
	l-1.249-0.711l-0.925-0.269l-0.463-0.026l-0.459,0.106l0.107-0.255l0.118-0.209l0.072-0.219l-0.044-0.287l-0.116-0.176l-0.171-0.172
	l-0.131-0.175l-0.004-0.185l0.08-0.068l0.115-0.013l0.123,0.005l0.104-0.015l0.09-0.081l0.307-0.565l-0.084-0.135l-0.359-0.204
	l-0.34-0.544l-0.152-0.115h-0.206l-0.397,0.221l-0.218,0.053l-0.374-0.151l-0.226-0.32l-0.202-0.353l-0.291-0.24l-0.891-0.371
	l-0.4-0.258l-0.285-0.332l-0.223-0.419l-0.16-0.189l-0.211-0.103l-0.919-0.23l-0.274-0.029l-0.64,0.172l-0.508,0.025l-0.226,0.047
	l-0.516,0.326l-0.145,0.027l-0.152-0.06l-0.271-0.072l-0.182-0.089l-0.215-0.186l-0.191-0.219l-0.119-0.195l-0.018-0.084
	l-0.032-0.076l-0.046-0.067l-0.053-0.059l-0.187-0.103l-0.195-0.039l-0.194,0.008l-0.206,0.042l-0.165-0.047l-0.081-0.192
	l-0.083-0.48l-0.202-0.361l-0.306-0.167l-0.344-0.1l-0.32-0.174l-0.168-0.207l-0.092-0.235l-0.035-0.26l-0.003-0.28l-0.072-0.313
	l-0.176-0.108l-0.217-0.056l-0.194-0.149l-0.05-0.148l0.019-0.129l0.031-0.122l-0.008-0.128l-0.069-0.108l-0.194-0.154l-0.05-0.117
	l0.008-0.159l0.034-0.138l0.013-0.137l-0.059-0.154l-0.09-0.063l-0.236-0.027l-0.101-0.046l-0.129-0.216l-0.054-0.229l-0.081-0.202
	l-0.423-0.26l-0.347-0.309l-0.184-0.095l-0.616,0.121l-0.24,0.568l-0.088,0.64l-0.156,0.342l-0.21-0.075l-0.313-0.327l-0.209-0.104
	l-0.215,0.453l-0.137,0.207l-0.164,0.166l-0.194,0.1l-0.168,0.008l-0.336-0.041l-0.326,0.082l-0.148-0.003l-0.394-0.2l-0.103-0.091
	l-0.053-0.141l-0.03-0.254l0.091-0.567l0.184-0.566l0.03-0.487l-0.374-0.333l-0.474-0.3l0.054-0.323l1.229-1.015l0.213-0.238
	l0.062-0.182l-0.297-0.39l-0.47-0.484l-0.229,0.008l-0.107-0.029l-0.09-0.079l-0.075-0.107l-0.099-0.259l-0.156-0.191l-0.061-0.109
	l-0.008-0.148l0.03-0.139l0.008-0.129l-0.313-0.353l0.042-0.242l0.328-0.514l0.081-0.283l0.096-0.625l0.076-0.293l0.276-0.627
	l0.029-0.279l-0.133-0.303l-0.149-0.147l-0.55-0.329l-0.366-0.291l-1.231-1.689l-0.212-0.46l-0.275-0.39l-0.462-0.25l-0.236-0.076
	l-0.021-0.186l0.065-0.269l0.015-0.321l-0.301-1.359l-0.035-0.07l-0.019-0.085l0.024-0.186l0.064-0.13l0.083-0.084l0.051-0.092
	l-0.043-0.147l-0.5-0.742l-0.355-0.766l0.05-0.291l0.294-0.162l0.496-0.117l1.796-0.054l0.508-0.121l0.221-0.119l0.218-0.194
	l0.375-0.457l0.236-0.117l0.297,0.113l0.181,0.255l-0.024,0.253l-0.106,0.255l-0.072,0.269l0.021,0.222l0.226,0.774l0.21,0.478
	l1.065,0.912l0.325,0.359l0.375,0.321l0.409,0.124l0.412-0.227l0.172-0.037l0.312-0.147l0.173-0.046l0.141,0.018l0.341,0.086
	l0.11-0.01l0.209-0.293l0.139-0.883l0.13-0.334l0.251-0.194l0.359-0.165l0.374-0.117l0.305-0.053l0.257,0.053l0.259,0.126
	l0.253,0.084l0.228-0.065l0.535-0.611l1.237-0.996l0.527-0.642l0.244-0.49l0.115-0.536l-0.062-0.489l-0.298-0.342l-0.352-0.387
	l-0.125-0.433l-0.086-0.459l-0.243-0.466l-0.738-0.66l-0.251-0.394l-0.008-0.561l0.076-0.284l0.058-0.789l0.087-0.283l0.279-0.411
	l0.107-0.226l-0.037-0.555l-0.43-0.225l-1.015-0.042l-0.44-0.152l-0.959-0.521l-0.396-0.031l-0.44,0.2l-0.106-0.083l-0.024-0.354
	l-0.052-0.284l-0.161-0.199l-0.215-0.135l-0.214-0.102l-0.469-0.141l-0.199-0.114l-0.699-1.153l-1.18-1.125l-0.294-0.499
	l-0.249-0.883l0.161-2.883l-0.083-0.976l-0.214-0.967l-0.622-1.847l0.114-1.288l0.958-0.662l1.227-0.533l0.92-0.897l0.119-0.345
	l0.034-0.352l-0.039-0.354l-0.114-0.346l-0.317-0.608l-0.368-0.353l-0.458-0.205l-0.588-0.168l-0.473-0.277l-0.642-0.856
	l-1.088-0.841l-0.723-0.306l-2.875-0.492l-0.558-0.24l-0.497-0.461l-0.286-0.523l-0.779-2.896l-0.114-0.268l-0.508-0.659
	l-0.176-0.525l-0.114-1.164l-0.116-0.559l-1.184-2.132l-0.442-1.149l0.111-1.208l0.355-0.782l0.222-0.844l-0.145-0.599l-0.737-0.038
	l-0.352,0.187l-0.57,0.634l-0.373,0.152l-0.329-0.084l-0.29-0.24l-0.237-0.328l-0.188-0.338l-9.483,5.925l-0.08,0.05l-0.248,0.319
	l0.049,0.374l0.104,0.422l-0.084,0.477l-0.195,0.261l-0.761,0.611l-0.24,0.271l-0.161,0.125l-0.19-0.038l-0.333-0.213l-0.34-0.096
	l-0.451,0.041l-0.438,0.15l-0.309,0.242l-0.104,0.352l0.051,0.823l-0.119,0.292l-1.152,1.107l-0.165,0.088l-1.093,0.234
	l-0.217-0.007l-0.199-0.073l-0.55-0.408l-0.486-0.079l-0.48,0.187l-1.742,1.009l-1.348,0.352l-0.42,0.012l-0.802-0.344l-0.438,0.095
	l-0.203,0.185l-0.261,0.443l-0.167,0.209l-0.092,0.05l-0.34,0.108l-0.825,0.62l-0.729,0.758l-0.257,0.209l-0.237,0.063l-0.535-0.074
	l-0.267,0.003l-0.729,0.176l-0.558-0.022l-3.323-0.897l-0.519-0.257l-0.501-0.37l-0.202-0.225l-0.184-0.288l-0.301-0.199
	l-0.462-0.006l-0.825,0.179l-1.176,0.06l-4.453-0.896l-3.189-1.163l-0.799-0.137l-0.795,0.069l-0.809,0.324l-0.946,0.701
	l-0.329,0.168l-2.002,0.346l-0.171,0.084l-0.368,0.308l-0.026,0.355l0.103,0.395l0.004,0.433l-0.187,0.305l-0.604,0.425
	l-0.206,0.348v0.002l-0.016,0.574l-0.064,0.184l-0.111,0.121l-0.313,0.171l-0.134,0.102l-0.21,0.342l-0.061,0.383l0.098,0.366
	l0.273,0.294l0.312,0.185l0.307,0.121l0.323,0.048l0.359-0.037l0.381,0.038l0.211,0.26l0.283,0.754l0.175,0.289l0.096,0.331
	l-0.035,0.308l-0.237,0.226l-0.757,0.4l-0.297,0.311l-0.111,0.463l0.118,0.453l0.283,0.4l0.375,0.275l0.39,0.079l0.863-0.225
	l0.255,0.016l0.668,0.24l0.455-0.024l0.478-0.117l0.458-0.015l0.394,0.28l0.161,0.489l-0.126,0.487l-0.287,0.438l-0.343,0.341
	l-0.438,0.316l-0.448,0.203l-1.36,0.236l-0.294,0.274l-0.434,0.779l-0.077,0.179l-0.058,0.189l-0.039,0.195l-0.03,0.442l0.03,0.234
	l0.064,0.221l0.108,0.208l0.599,0.513l0.807,0.437l0.675,0.542l0.203,0.831l-0.271,1.148l-0.385,1.095l-0.123,0.25l-0.137,0.213
	l-0.165,0.182l-0.21,0.153l-0.474,0.19l-0.202,0.139l-0.126,0.265l-0.042,0.659l0.175,0.466l0.34,0.353l0.458,0.324l0.412,0.416
	l0.698,0.969l0.47,0.271l1.173,0.199l0.347,0.217l0.135,0.334l0.03,0.758l0.157,0.766l-0.038,0.313l-0.139,0.279l-0.205,0.308
	l0.123,0.282l0.163,0.218l0.215,0.143l0.271,0.051l0.237-0.064l0.408-0.25l0.253-0.021l0.21,0.111l0.366,0.373l0.207,0.114
	l0.251,0.01l0.669-0.108l0.249-0.081l0.259-0.188l0.1-0.224l0.053-0.257l0.122-0.291l0.225-0.229l0.229-0.047l0.168,0.14l0.05,0.334
	l-0.084,0.321l-0.321,0.628l-0.091,0.331l0.002,0.328l0.092,0.605l-0.015,0.298l-0.104,0.254l-0.137,0.259l-0.096,0.271l0.039,0.297
	l0.377,1.04l0.34,0.403l0.45,0.155l0.486-0.026l0.45-0.15l0.494-0.032l0.866,0.442l0.524-0.056l0.534-0.216l0.417-0.043l0.393,0.159
	l0.47,0.39l0.428,0.262l0.883,0.214l0.432,0.255l1.221,1.007l0.329,0.417l0.077,0.337l-0.134,0.292l-0.404,0.465l-0.104,0.25
	l-0.129,0.507l-0.042,0.161l-0.397-0.029l-0.168,0.029l-0.293,0.101l-0.39,0.199l-0.287,0.282l0.016,0.339l-0.165-0.018
	l-0.287-0.082l-0.111,0.048l-0.137,0.137l-0.108,0.05l-0.102-0.006l-0.775-0.295l-0.229,0.049l0.095,0.418l-0.125,0.009
	l-0.309-0.023l-0.119,0.063l-0.1,0.145l-0.054,0.125l-0.08,0.104l-0.154,0.084l-0.305,0.037l-0.286-0.032l-0.249,0.045l-0.203,0.255
	l-0.561-0.205l-0.218,0.322l-0.11,0.517l-0.237,0.384l-0.264,0.058l-0.813-0.168l-0.359,0.683l-0.161,0.125l-0.207,0.076l-0.95,0.74
	l-0.19,0.2l-0.123,0.239l-0.042,0.325l-0.008,0.195l-0.022,0.067l-0.054,0.049l-0.099,0.138l-0.024,0.07l-0.034,0.176l-0.027,0.066
	l-0.038,0.033l-0.1,0.046l-0.027,0.021l-0.134,0.237l-0.041,0.05l0.125,0.166l0.711,1.294l0.363,1.396l0.382,0.584l0.03,0.279
	l-0.064,0.275l-0.149,0.236l-0.206,0.259l-0.153,0.254l-0.496,1.266l-0.088,0.337l-0.004,0.66l-0.203,0.583l-0.034,0.297
	l0.042,0.284l0.064,0.208l0.111,0.184l0.168,0.208l0.207,0.091l0.55-0.1l0.255,0.007l0.187,0.114l0.233,0.211l0.108,0.137
	l-0.731,0.398l-0.271,0.204l-0.191,0.259l-0.004,0.302l-0.194,0.18l-0.176,0.233l-0.194,0.201l-0.253,0.086l-0.277,0.007
	l-0.237,0.04l-0.214,0.106l-0.217,0.203l-0.139,0.252l-0.053,0.206l-0.1,0.115l-0.271-0.021l-0.33-0.097l-0.141-0.011l-0.161,0.035
	l-0.133,0.089l-0.108,0.132l-0.083,0.152l0.09,0.263l-0.141,0.261l-0.257,0.197l-0.247,0.078l-0.046,0.061l0.115,0.29l0.012,0.104
	l-0.096,0.107l-0.187,0.144l-0.106,0.104l-0.261,0.39l-0.205,0.182l-0.096,0.117l-0.084,0.295l-0.183,0.141l-0.042,0.117
	l-0.038,0.208l-0.099,0.078l-0.294,0.059l-0.267,0.135l-0.195,0.133l-0.172,0.163l-0.187,0.225l-0.129,0.277l0.014,0.25l0.039,0.275
	l-0.05,0.353l-0.167,0.186l-0.5,0.141l-0.107,0.117l-0.081,0.191l-0.637,0.9l-0.126,0.103l-0.157,0.026l-0.213-0.071l0.026,0.095
	l0.03,0.206l0.024,0.097l-0.234-0.025l-0.251,0.131l-0.203,0.216l-0.08,0.228l-0.039,0.058l0.623,0.338l0.257,0.378l0.286,0.621
	l0.18,0.637l-0.058,0.421l-2.096,1.755l-0.486,0.273l-2.295,0.521l-2.177,1.019l-0.19,0.216l-0.539,1.769l-0.539,1.755l-0.656,2.127
	l-0.692,1.343l-0.619,1.199l-0.985,1.902l-0.786,1.058l-0.325,0.542l-0.409,0.995l-0.157,0.212l-0.21,0.147l-1.627,0.851
	l-1.44,0.751l-1.677,0.876l-1.811,0.943l-0.347,0.241l-0.936,1.146l-0.301,0.595l-0.741,2.869l-0.256,0.683l-0.348,0.617
	l-0.493,0.517l-1.55,1.276l-1.008,1.317l-0.142,0.286l-0.068,0.262l-0.145,1.739l-0.072,0.216l-0.168,0.134l-2.012,0.617
	l-1.777,0.543l-1.054,0.087l-1-0.084l-1.093,0.095l-1.072,0.231l-0.956,0.327l-1.554,0.771l-1.436,0.712l-1.035,0.232l-0.883-0.117
	l-0.648-0.445l-0.49-0.709l-0.39-0.904l-0.039-0.277l0.05-0.526l-0.107-0.288l-0.152-0.178l-0.355-0.29l-0.416-0.483l-0.317-0.249
	l-0.355-0.184l-0.371-0.119l-0.267-0.037l-0.241,0.063l-0.489,0.195l-0.488,0.076l-0.222,0.069l-0.229,0.158l-0.707,0.785
	l-0.87,0.628l-1.223,1.267l-0.141,0.259l-0.933,2.736l-0.293,0.417l-1.081,1.043l-0.757,1.23l-1.482,1.415l-0.813,0.568
	l-1.146,1.151l-0.515,0.887l-0.341,1.065l-0.274,1.736l-0.263,1.676l0.099,0.579l0.393,0.442l1.958,0.807l0.517,0.347l0.909,0.812
	l0.546,0.208l3.036-0.123l0.474,0.123l0.454,0.25l0.359,0.456l0.061,0.516l-0.072,1.154l0.042,0.555l-0.042,0.243l-0.114,0.291
	l-0.068,0.274l0.019,0.271l0.096,0.563l-0.063,0.514l-0.187,0.518l-0.675,1.13l-0.058,0.23l-0.012,0.499l-0.11,0.725l0.004,0.212
	l0.237,0.703l0.402,0.673l0.496,0.59l0.52,0.453l0.233,0.287l0.259,0.771l0.183,0.324l0.195,0.145l0.493,0.178l0.714,0.155
	l1.478-0.041l0.498-0.104l0.476-0.209l0.478-0.14l0.504,0.104l0.271,0.375l0.046,0.567l-0.057,1.221l-0.078,1.593l0.096,0.484
	l0.203,0.292l0.508,0.55l0.099,0.348l0.058,0.328l0.148,0.276l0.424,0.475l0.794,0.691l0.217,0.278l0.141,0.33l0.425,1.907
	l0.274,0.765l0.352,0.728l0.761,1.187l0.423,1.208l0.34,0.528l-0.26,0.186l-0.833,0.407l-0.183,0.33l-0.099,0.432l0.038,0.392
	l0.244,0.216l0.046,0.079l0.012,0.083l-0.016,0.092l-0.042,0.095l-0.031,0.276l-0.018,0.107l-0.004,0.104l0.014,0.103l0.039,0.1
	l0.287,0.166l0.508,0.084l0.439,0.144l0.099,0.342l-0.122,0.13l-0.607,0.217l-0.134,0.153l-0.091,0.155l-0.134,0.103l-0.245-0.01
	l-0.275-0.119l-0.24-0.018l-0.237,0.076l-0.772,0.521l-0.195,0.248l0.042,0.242l0.168,0.229l-0.08,0.093l-0.217,0.049l-0.261,0.095
	l-0.472,0.245l-0.261,0.072l-1.688-0.134l-0.465-0.23l-0.215-0.206l-0.095-0.199l-0.062-0.547l-0.122-0.484l0.012-0.151l0.068-0.085
	l0.218-0.145l0.076-0.141l-0.156-0.332l-0.532-0.01l-1.318,0.316l-0.576,0.408l-0.221,0.084l-0.692,0.04l-0.244,0.114l-0.463,0.338
	l-0.247,0.053l-0.261,0.016l-0.725,0.244l-0.444,0.041l-0.149,0.084l-0.133,0.224L259.61,265l-0.138,0.25l-0.454,0.386l-0.558,0.121
	l-2.559,0.037l-0.687-0.083l-0.558-0.277l-0.986-1.045l-0.369-0.167l-3.564-0.096l-0.939,0.346l-0.5,0.075l-0.233-0.048l-0.71-0.347
	l-0.305-0.091l-0.241,0.044l-0.516,0.285l-0.34,0.126l-0.229-0.025l-0.176-0.18l-0.243-0.44l-0.092-0.112l-0.11-0.093l-0.115-0.046
	l-0.176,0.016l-0.064,0.081l-0.022,0.114l-0.042,0.11l-0.394,0.733l-0.126,0.104l-0.241-0.189l-0.077-0.8l-0.183-0.284l-0.653-0.029
	l-0.273,0.576l-0.002,1.105l-0.008,1.443l-0.008,1.909l-0.984-0.008l-1.243-0.008l-1.47-0.011l-0.581,0.092l-0.4,0.29v-0.108
	l-0.016-0.129l-0.046-0.111l-0.08-0.054l-0.152,0.027l-0.008,0.116l0.05,0.138l0.016,0.096l-0.116,0.182l-0.148,0.164l-0.173,0.073
	l-0.179-0.079l-0.076-0.129l-0.031-0.107l-0.045-0.057l-0.129,0.024l-0.111,0.094l-0.032,0.124l0.008,0.123l-0.016,0.088
	l0.024,0.027l0.053,0.046l0.032,0.053l-0.047,0.05l-0.049,0.002l-0.126-0.024l-0.038,0.006l-0.086,0.055l-0.227,0.1l-0.099,0.066
	l-0.299,0.462l-0.008,0.108l-0.035,0.112l-0.053,0.401l-0.122,0.343l-0.027,0.213l0.055,0.14l0.129-0.093l0.247-0.281v0.292
	l-0.026,0.274l0.02,0.259l0.141,0.252l0.207,0.196l0.201,0.107l0.226-0.009l0.271-0.155l-0.058,0.276l-0.175,0.061l-0.209,0.032
	l-0.158,0.192l-0.161-0.195l-0.133-0.047l-0.146,0.051l-0.175,0.098l-0.026,0.057l-0.046,0.185l-0.05,0.041l-0.255-0.014
	l-0.055,0.014l-0.08,0.255l0.176,0.162l0.302,0.094l0.623,0.083l0.797-0.033l0.18,0.02l0.119,0.04l0.122-0.011l0.183-0.134
	l0.088-0.092l0.053-0.1l-0.015-0.096l-0.126-0.085l0.87-1.049l0.214-0.188l0.275-0.124l0.295-0.195l0.466-0.089l0.19-0.111
	l0.173-0.126l0.205-0.1l0.417-0.097l0.142-0.084l0.129-0.184l0.173-0.4l0.133-0.119l0.261-0.044l0.476-0.006l0.329-0.059
	l0.279-0.172l0.34-0.34l0.165,0.058l0.325-0.141l0.203,0.083l-0.668,0.511l-0.157,0.066l-0.141,0.044l-0.245,0.195l-0.131,0.042
	l-0.446-0.027l-0.119,0.027l-0.206,0.229l-0.211,0.516l-0.454,0.177l-0.229,0.183l-0.363,0.393l-0.203,0.309l-0.064,0.067
	l-0.123,0.043l-0.245,0.022l-0.198,0.129l-0.245,0.077l-0.054,0.054l0.046,0.198l0.103,0.021l0.116-0.029l0.083,0.053l-0.014,0.258
	l-0.253,0.001l-0.558-0.174l-0.237,0.138l-0.045,0.325l0.071,0.666l-0.056,0.549l0.069,0.193l0.248,0.015l0.195-0.129l0.008-0.182
	l-0.076-0.215l-0.05-0.231l0.084,0.107l0.126,0.204l0.057,0.064l0.119,0.022l0.096-0.058l0.072-0.015l0.057,0.151l-0.255,0.123
	l-0.229,0.242l-0.185,0.295l-0.113,0.275l0.091,0.125l0.118,0.031l0.146-0.047l0.167-0.109l-0.054,0.172l-0.027,0.184l0.046,0.145
	l0.161,0.058l0.195-0.061l0.076-0.117l0.062-0.074l0.145,0.066l0.113-0.085l0.1-0.013l0.081,0.059l0.062,0.133l-0.15-0.004
	l-0.11,0.06l-0.072,0.113l-0.022,0.153l0.022,0.153l0.072,0.107l0.11,0.083l0.15,0.083l0.026-0.021l0.068-0.041l0.08-0.033
	l0.072,0.001l0.035,0.054l0.038,0.095l0.058,0.09l0.091,0.041l0.173,0.045l0.138,0.098l0.049,0.101l-0.096,0.044l-0.39,0.053
	l-0.095,0.032l-0.247,0.519l0.137,0.252l0.323,0.061l0.347-0.061l0.223-0.109l0.004,0.157l-0.039,0.147l-0.138,0.255l-0.137-0.14
	l-0.035-0.047l0.053,0.211l0.116,0.247l0.171,0.211l0.343,0.145l0.016,0.127l-0.004,0.128l0.042,0.059l0.08,0.049l0.389,0.324
	l2.207,1.507l2.193,0.947l1.207,0.846l0.836,0.492l0.466,0.14l1.253,0.121l0.436,0.192l0.419,0.072l0.241,0.128l0.596,0.131
	l0.065,0.035l0.064,0.05l0.089,0.05l0.133,0.042l0.138,0.016l0.424-0.016l0.155,0.044l0.237,0.192l0.126,0.043l0.859,0.008
	l0.513,0.147l0.271,0.038l0.168-0.106l0.392-0.729l0.253-0.261l0.337-0.241l0.332-0.181l0.248-0.069l0.397-0.059l0.71-0.247
	l0.711-0.105l0.821-0.333l0.734-0.093l0.19-0.066l-0.034-0.153l-0.153-0.156l-0.139-0.091l0.269-0.474l-0.058,0.126l-0.016,0.12
	l0.05,0.091l0.148,0.037l0.084,0.008l0.03,0.023l0.016,0.045l0.042,0.068l0.11,0.095h0.061l0.05-0.039l0.084-0.015l0.325,0.012
	l0.225-0.098l0.126-0.213l0.011-0.345l0.21,0.174l0.111,0.212l0.138,0.182l0.282,0.076l0.028,0.022l0.076,0.096l0.046,0.084
	l0.064-0.021l0.077-0.051l0.056-0.029l0.081,0.009l0.062,0.023l0.053,0.042l0.062,0.065l0.091,0.056l0.073-0.023l0.064-0.051
	l0.072-0.026l0.264-0.002l0.104-0.029l0.081-0.063l0.034-0.112l0.022-0.189l0.008-0.192l-0.022-0.113l-0.004-0.124l0.118-0.326
	l-0.084-0.138l-0.046-0.165l-0.026-0.187v-0.137l0.152-0.23l0.504-0.267l0.11-0.116l0.096-0.213l0.217,0.102l0.233,0.243
	l0.153,0.203l0.11,0.261l0.062,0.318l-0.02,0.321l-0.115,0.269l-0.072,0.115l-0.096,0.216l-0.09,0.129l-0.142,0.087l-0.148-0.005
	l-0.145-0.034h-0.119l-0.21,0.16l-0.408,0.482l-0.214,0.101l-0.157,0.128l-0.404,0.811l-0.223,0.229l-0.038,0.05l-0.011,0.147
	l0.023,0.329l-0.055,0.128l-0.652,0.982l-0.412,0.776l-0.348,0.461l-0.222,0.506l-0.141,0.216l-0.428,0.191l-1.077-0.145
	l-0.486,0.045l-0.229,0.163l-0.08,0.024l-0.283,0.019l-0.011-0.019l-0.138,0.082l-0.715,0.665l-0.259,0.174l-0.267,0.105
	l-0.161,0.009l-0.114-0.017l-0.107,0.035l-0.141,0.159l-0.069,0.15l-0.046,0.156l-0.079,0.114l-0.15,0.035l-0.079-0.063
	l-0.584-0.677l-0.112-0.095l-0.103,0.209l-0.206,0.62l-0.122,0.197l-0.062,0.006l-0.172-0.077l-0.076-0.021l-0.068,0.027
	l-0.053,0.058l-0.05,0.064l-0.046,0.046l-0.064,0.095l-0.066,0.128l-0.086,0.061l-0.135-0.106l-0.126,0.172l-0.031,0.083
	l-0.016,0.124l-0.191-0.108l-0.405-0.092l-0.179-0.095l0.088-0.189l-0.023-0.271l-0.152-0.55h-0.084l-0.13,0.08l-0.112-0.038
	l-0.076,0.011l-0.026,0.227l0.04,0.209l0.076,0.166l0.035,0.159l-0.074,0.197l-0.061,0.033l-0.084,0.012l-0.072,0.027l-0.034,0.075
	l-0.184,0.261l-0.073,0.071l-0.137,0.061l-0.421,0.1l-0.954,0.019l-0.167,0.057l-0.138,0.254l-0.619,0.292l-0.939,0.145v-0.101
	l-0.275-0.149l-0.21-0.216l-0.049-0.266l0.194-0.295l-0.038-0.229l0.297-0.438l-0.044-0.219l-0.177-0.156l-0.123-0.017l-0.122,0.094
	l-0.179,0.177l-0.096,0.037l-0.091-0.03l-0.1-0.046l-0.114-0.009l-0.115,0.046l-0.21,0.121l-0.111,0.028l-0.21-0.036l-0.119-0.111
	l-0.179-0.323l0.1-0.14l0.231-0.105l0.1-0.136l0.035-0.183l-0.045-0.103l-0.1-0.019l-0.329,0.243l-0.502,0.283l-0.185,0.158
	l-0.122,0.164l-0.115,0.199l-0.084,0.236l-0.034,0.279l-0.053,0.233l-0.119,0.198l-0.092,0.227l0.008,0.315l0.111,0.257l0.339,0.549
	l0.176,0.428l0.229,0.249l0.45,0.375l0.554,0.789l0.138,0.314l0.205,0.195l0.398,0.282l0.603,0.831l0.173,0.166l0.401,0.292
	l1.165,1.129l0.244,0.126l0.153-0.041l0.291-0.278l0.058,0.208l-0.046,0.395l0.076,0.229l0.374,0.459l0.241,0.203l0.405,0.186
	l0.263,0.436l0.259,0.209l0.413,0.533l0.198,0.205l0.776,0.461l1.596,1.693l0.191,0.162l0.218,0.121l0.251,0.049l0.077,0.434
	l0.381,0.594l0.842,1.004l0.586,0.561l0.1,0.133l0.064,0.127l1.088,1.412l1.196,0.949l1.405,1.32l0.459,0.293l0.466,0.422
	l0.783,0.318l0.229,0.174l0.436,0.465l0.145,0.096l0.271,0.064l0.721,0.484l1.984,0.824l0.403,0.311l0.119,0.064l0.141-0.016
	l0.15-0.066l0.145-0.035l0.133,0.066l0.206,0.178l0.229,0.082l0.26,0.016l1.791-0.111l0.237-0.164l0.083-0.26l0.207-0.039
	l0.257,0.055l0.229,0.021l0.129-0.09l0.134-0.146l0.153-0.096l0.187,0.057l0.084-0.102l0.297,0.018l2.25-1.123l0.748-0.135
	l1.062-0.348l0.233-0.201l0.046-0.225l0.114-0.162l0.546-0.475l0.183-0.123l0.229-0.076l-0.087,0.084l-0.07,0.094l-0.095,0.199
	l0.432-0.096l0.711-0.518l0.548-0.199l0.432-0.275l0.157,0.018l0.168,0.043l0.245-0.064l0.324-0.201l0.222-0.197l1.517-0.914
	l0.584-0.031l0.229-0.055l0.814-0.43l0.096-0.086l0.048-0.088l0.11-0.059l0.119-0.041l0.077-0.037l0.176-0.184l-0.004-0.23
	l-0.137-0.287l-0.035-0.125l0.035-0.072l0.073-0.092l0.042-0.125l-0.074-0.18l0.139-0.033l0.045-0.08l-0.02-0.117l-0.068-0.139
	l0.148-0.105l0.448-0.502l0.094-0.178l0.096-0.254l0.668-0.709l0.282-0.484l0.417-1.549l0.05-0.066l0.163-0.152l0.046-0.057
	l0.038-0.139l-0.004-0.105l-0.022-0.109l-0.012-0.16l-0.042-0.074l-0.088-0.074l-0.09-0.094l-0.08-0.258l-0.107-0.018l-0.146,0.018
	l-0.145-0.01l-0.126-0.057l-0.084-0.063l-0.061-0.072l-0.058-0.094l-0.148-0.477l-0.031-0.025l-0.054-0.105l-0.236-0.121
	l-0.058-0.146l-0.018-0.18l-0.066-0.043l-0.611,0.236l-0.181,0.02l-0.197-0.127l-0.172-0.057l-0.241,0.041l-0.417,0.154l0.008-0.09
	l-0.016-0.182l0.008-0.09l-0.153,0.075l-0.058,0.033l-0.046,0.068l-0.068-0.154l-0.022-0.172l0.004-0.367l0.034-0.21l0.084-0.038
	l0.742,0.315l0.305,0.056l0.221-0.073l-0.229-0.404l-0.077-0.058l-0.106-0.013l-0.13-0.032l-0.107-0.045l-0.046-0.053l0.106-0.248
	l0.249,0.058l0.263,0.189l0.161,0.144l0.153,0.219l0.096,0.101l0.393,0.095l0.096-0.028l-0.088-0.156l-0.031-0.177l0.092-0.179
	l0.031-0.152l-0.221-0.1l0.086-0.093l-0.175-0.084v-0.093l0.141-0.109l-0.183,0.011l-0.474,0.099l-0.213-0.025l-0.741-0.258
	l0.121-0.121l0.211-0.079l0.229-0.013l0.18,0.081l0.111,0.074l0.072-0.029l0.034-0.088l-0.004-0.104l-0.279-0.189l-0.073-0.087
	l0.482,0.14l0.129-0.04l0.038-0.149l-0.114-0.138l-0.279-0.181l0.215-0.048l0.259,0.079l0.219,0.145l0.094,0.146l0.054,0.134
	l0.118-0.032l0.123-0.095l0.049-0.053l0.057-0.096l0.054-0.136l0.057-0.045l0.081,0.175h0.102l0.028-0.186l0.057-0.042l0.207,0.053
	l0.152-0.019l0.103-0.053l0.222-0.209l0.011-0.054l0.092-0.161l0.106-0.134l0.05,0.031l0.026-0.143l0.123-0.234l0.126-1.434
	l-0.137-0.607l-0.486,0.038l-0.367-0.163l-0.061-0.063l0.038-0.174l0.072-0.132l0.039-0.129l-0.073-0.173l-0.394,0.391l-0.233,0.111
	l-0.313-0.123l-0.213-0.238l0.161-0.041l0.561,0.094l-0.065-0.236l0.095-0.121l0.188-0.038l0.213,0.017l0.306,0.091l0.016,0.106
	l-0.03,0.15l0.148,0.217l0.167-0.014l0.26,0.057l0.241-0.049l0.107-0.327l0.05-0.25l0.115-0.285l0.145-0.26l0.13-0.168l0.324-0.147
	l0.138,0.182l-0.038,0.276l-0.215,0.145l-0.095,0.135l0.006,0.305l0.066,0.316l0.068,0.179l0.279,0.096l0.233-0.13l0.209-0.148
	l0.188,0.037l0.042,0.111l-0.153,0.145l0.026,0.116l0.114,0.055l0.161-0.01l0.286-0.096l0.249-0.172l0.401-0.399l0.259-0.077
	l0.287,0.018l0.129,0.043l0.233,0.168l0.13-0.003l0.141-0.032h0.165l0.848,0.34l0.379,0.071l0.362-0.179l0.169-0.119l0.245-0.105
	l0.259-0.042l0.195,0.077l0.194,0.114h0.21l0.167-0.092l0.081-0.166l0.146,0.136l0.068,0.228l-0.008,0.245l-0.076,0.184
	l-0.241,0.136l-0.203-0.101l-0.197-0.177l-0.227-0.095l-0.442,0.085l-0.279,0.229l-0.531,0.721l-0.236-0.182l-0.126-0.065
	l-0.149-0.048l-0.1,0.011l-0.103,0.042l-0.123,0.004l-0.157-0.099l-0.217-0.182l-0.227-0.109l-0.255-0.019l-0.297,0.091
	l-0.192,0.143l-0.229,0.242l-0.19,0.27l-0.081,0.22l-0.03,0.297l-0.042,0.15l-0.134,0.258v0.149l0.027,0.154l0.008,0.16l-0.058,0.3
	l-0.165,0.514l-0.039,0.244l0.074,0.187l0.328,0.566l0.119,0.129l0.202-0.061l0.29-0.173l0.265-0.208l0.114-0.161l0.145-0.151
	l0.886-0.078l0.027-0.046l0.027-0.085l0.042-0.092l0.084-0.07l0.076-0.022l0.077-0.009l0.084,0.009l0.103,0.022v0.102l-0.259,0.049
	l-0.092,0.228l-0.058,0.251l-0.153,0.12l-0.477-0.032l-0.23,0.048l-0.197,0.167l-0.249,0.598l-0.168,0.299l-0.233,0.129
	l-0.053,0.135l-0.08,0.879l-0.077,0.303l-0.229,0.514l-0.045,0.252l0.076,0.301l0.198,0.084l0.256-0.051l0.572-0.203l0.237,0.012
	l0.229,0.057l0.299,0.031l0.718-0.127l0.283,0.035l0.534,0.152l0.267-0.02l0.269-0.178l0.225-0.088l0.31,0.023l0.554,0.109
	l0.293-0.059l0.523-0.26l0.263-0.059l0.126-0.043l0.237-0.191l0.073-0.043l0.466-0.176l0.442-0.248l0.091-0.027l0.073,0.121
	l-0.064,0.15l-0.126,0.125l-0.11,0.055l-0.291,0.051l-0.79,0.42l-0.719,0.268l-0.378,0.275l-0.58,0.24l-0.225,0.055l-0.165-0.016
	l-0.313-0.092l-0.134,0.006l-0.161,0.121l-0.271,0.533l-0.198,0.203l-0.278,0.209l-0.307,0.158l-0.29,0.066l-0.176,0.104
	l-0.492,0.453l-0.203,0.104l-0.194,0.162l-0.374,0.736l-0.081,0.207l0.366-0.061l0.662-0.477l0.232-0.115l0.692-0.23l0.129,0.043
	l0.054,0.219l-0.072,0.143l-0.237-0.174l-0.653,0.459l-0.046,0.049l-0.478,0.279l-0.775,0.234l-0.114,0.057l0.042,0.127l0.141,0.127
	l0.191,0.057l0.371-0.102l0.191-0.014l0.088,0.115l-0.088,0.074l-0.448,0.061l-0.159,0.059l-0.046,0.098l0.022,0.123l0.114,0.33
	l0.054,0.4l0.05,0.15l0.157,0.186l0.087-0.088l0.256-0.189l0.019,0.266l0.153,0.119l0.176,0.078l0.084,0.135l0.098,0.115
	l0.454,0.154l0.139,0.137h-0.172l-0.115,0.064l-0.233,0.209l-0.793,0.57l-0.191,0.219l-0.004,0.189l0.183,0.238l0.107,0.035
	l0.263-0.164l0.096,0.004l0.061-0.031l0.023-0.174l-0.016-0.293l0.012-0.152l0.046-0.105l0.129-0.063l0.249,0.006l0.096-0.086
	l0.183,0.217l-0.1,0.244l-0.188,0.316l-0.068,0.424l0.374-0.174l0.058-0.063l0.016-0.244l0.022-0.092l0.054-0.078l0.057,0.066
	l0.08,0.061l0.038,0.057l0.554-0.26l0.126-0.016l0.081,0.117l0.428,0.986l-0.062,0.129l-0.275,0.061l-0.497-0.088l-0.214,0.025
	l0.066,0.195l0.126,0.186l0.068,0.045l0.149,0.014l0.114,0.023l0.096,0.068l0.068,0.1l0.022,0.121l0.118,0.139l0.268-0.037
	l0.279-0.084l0.157-0.018l-0.023,0.275l-0.381,0.189l-0.249,0.244l0.355,0.438l-0.134,0.135l-0.107,0.475l-0.11,0.215l0.484-0.357
	l0.076-0.043l0.157-0.061l0.084,0.027l-0.152,0.217l-0.103,0.295l0.068,0.307l0.183,0.107l0.245-0.301l0.068,0.148l-0.027,0.105
	l-0.049,0.096l0.008,0.109l0.088,0.086l0.126,0.064l0.107,0.082l0.022,0.143h-0.081l-0.522,0.365l0.115,0.188l0.018,0.262
	l-0.045,0.609l-0.041,0.152l-0.176,0.18l-0.042,0.125l0.012,0.143l0.057,0.287l0.011,0.16l-0.016,0.301l-0.049,0.283l-0.091,0.256
	l-0.493,0.719l-0.134,0.279l-0.081,0.283l-0.031,0.41l-0.049,0.139l-0.084,0.094l-0.153,0.127l-0.141,0.094h-0.064l-0.054,0.297
	l-0.122,0.242l-0.141,0.215l-0.107,0.209l-0.065,0.436l-0.015,0.029v0.275l0.03,0.074l0.061,0.014l0.059,0.002l0.026,0.041
	l-0.042,0.154l-0.187,0.26l-0.038,0.143l-0.08,0.588l-0.225,0.623l-0.035,0.158v0.777l-0.054,0.205l-0.111,0.242l-0.13,0.203
	l-0.099,0.088l-0.142,0.061l-0.03,0.15l0.042,0.336l-0.023,0.467l-0.065,0.203l-0.125,0.191l0.011,0.133l0.287,0.391l0.088,0.164
	l-0.05,0.484l0.026,0.234l0.153-0.031l0.482-0.598l0.058,0.186l0.015,0.105l0.008,0.123l-0.042,0.107l-0.088,0.025l-0.087,0.016
	l-0.042,0.076l0.056,0.24l0.1,0.168v0.127l-0.237,0.107l-0.038-0.119l-0.058-0.102l-0.076-0.08l-0.092-0.063l0.291,0.998
	l0.106,0.576l-0.09,0.254l0.145,0.684l0.241,0.271l0.094,0.043l0.084-0.09l-0.012-0.102l-0.068-0.096l-0.187-0.164l0.064-0.082
	l0.012-0.105l-0.03-0.129l-0.046-0.141h0.092l0.229,0.104l0.133,0.092l0.062,0.121l0.018,0.152l0.059,0.121l0.08,0.084l0.103,0.047
	l0.253-0.023l0.251-0.109l0.259-0.061l0.288,0.119l-1.39,0.557l-0.185,0.115l-0.098,0.186l0.019,0.316l0.145,0.734l0.046,0.115
	l0.305,0.465l0.183,0.178l0.207,0.021l0.233-0.236l0.233,0.115l0.355,0.307l0.194,0.123l0.225,0.049l0.683-0.049l0.214,0.086
	l0.175,0.186l0.134,0.188l0.088,0.086l0.123,0.09l-0.016,0.201l0.03,0.219l0.249,0.133l-0.294,0.162l-0.201-0.25l-0.28-0.729
	l-0.198-0.193l-0.165-0.014l-0.168,0.064l-0.203,0.043l-0.378-0.055l-0.187-0.068l-0.232-0.277l-0.352-0.031l-0.681,0.07
	l-0.121,0.195l-0.046,0.451l0.042,0.805l0.175-0.17l0.161-0.271l0.165-0.211l0.191,0.016l-0.131,0.158l-0.217,0.387l-0.245,0.568
	l-0.018,0.121l0.038,0.121h0.091l0.092-0.084l0.072-0.199l0.076-0.051l0.088,0.004l0.064,0.08l-0.012,0.074l-0.129,0.133l-0.031,0.1
	l0.027,0.117l0.118,0.244l0.026,0.141l-0.015,0.15l-0.157,0.402l0.149,0.047l0.034,0.129l-0.03,0.154l-0.062,0.123l-0.049-0.037
	l-0.131-0.063l0.031,0.387l-0.035,0.15l-0.08,0.195l-0.252,0.336l-0.072,0.152l0.065,0.156l0.161-0.135l0.053-0.064l0.046-0.082
	h0.084l0.057,0.193l-0.022,0.16l-0.046,0.139l0.012,0.141l0.127,0.164l0.11-0.076l0.08-0.201l0.107-0.541l0.187-0.371l0.229-0.322
	l0.203-0.193l0.08,0.328v0.127l0.539-0.563l0.115-0.279l-0.209-0.154l0.09-0.178l0.02-0.463l0.184-0.17l0.218-0.469h0.091
	l-0.091,0.957l0.079,0.168l0.154,0.055l0.079,0.094l-0.141,0.277l0.087,0.125l-0.054,0.352l0.062,0.158l0.294-0.145l0.355-0.109
	l0.214,0.031l-0.126,0.268l-0.063-0.01l-0.63,0.178l-0.301,0.131l-0.188,0.02v0.09h0.443l-0.142,0.211l-0.175,0.006l-0.181-0.047
	l-0.152,0.055l-0.031,0.354l-0.084,0.123l-0.195-0.16l-0.199,0.385l0.249,0.32l0.374,0.16l0.195-0.092l0.02-0.049l0.05-0.043
	l0.064-0.029l0.072-0.01l0.05,0.047l-0.026,0.107l-0.046,0.119l-0.02,0.08l0.084,0.209l0.083,0.102l0.36,0.15l-0.176,0.162
	l-0.133,0.293l-0.045,0.338l0.087,0.301l-0.184-0.074l-0.137-0.137l-0.046-0.191l0.107-0.238l-0.45-0.498l-0.152-0.127l-0.181,0.352
	l-0.133,0.01l-0.187-0.102l-0.1-0.004l-0.172,0.105l-0.111,0.174l-0.056,0.217l-0.008,0.664l0.046,0.512l0.114,0.426l0.225,0.178
	l0.298,0.771l0.054,0.242l0.141,0.053l0.364-0.072l0.13,0.076l0.126,0.18l0.095,0.225l0.039,0.201l0.1,0.252l0.195,0.131
	l0.137,0.133l-0.08,0.258l-0.233-0.258l-0.37-0.633l-0.18-0.195l-0.279-0.041l-0.221,0.158l-0.145,0.273l-0.051,0.291l-0.026,0.525
	l0.026,0.156l0.073,0.16l0.088,0.115l0.073,0.123l0.03,0.182l-0.011,0.109l-0.02,0.064l-0.004,0.059l0.034,0.09l0.062,0.064
	l0.064-0.004l0.069-0.014l0.072,0.035l0.215,0.291l0.103,0.063l0.199,0.008l-0.084,0.225l0.118,0.207l0.222,0.15l0.221,0.059
	l0.386-0.043l0.179,0.02l0.18,0.105l-0.076,0.203l0.106,0.441l-0.03,0.266l-0.176,0.242l-0.125-0.041l0.002-0.166l0.199-0.119
	l-0.161-0.227l-0.233-0.139l-0.251-0.066l-0.217-0.027l-0.16,0.012l-0.074,0.023l-0.053-0.029l-0.103-0.137l-0.065-0.143
	l-0.022-0.115l-0.055-0.09l-0.165-0.063l-0.064,0.129l-0.018,0.127l0.018,0.117l0.064,0.086l-0.061,0.086l-0.106,0.275l0.355,0.084
	l0.157,0.285l0.111,1.021l0.03,0.088l0.076,0.104l0.047,0.107l-0.02,0.109l-0.042,0.08l-0.03,0.014l0.08,0.186l0.176,0.191
	l0.095,0.172l0.08-0.133l0.096-0.113l0.118-0.082l0.145-0.041l-0.016,0.236l-0.126,0.105l-0.164,0.07l-0.134,0.127l-0.046,0.18
	l0.046,0.16l0.126,0.104l0.209,0.008l-0.233,0.26l0.02,0.271l0.589,0.965l0.106,0.279l0.076,0.432l0.076,0.143l0.199,0.229
	l0.065,0.141l0.042,0.359l0.065,0.135l0.107,0.164l-0.004,0.164l-0.072,0.156l-0.119,0.152l-0.03,0.143l0.061,0.174l0.107,0.162
	l0.091,0.105l-0.076,0.176l0.016,0.207l0.087,0.193l0.138,0.143l0.188,0.068l0.405,0.039l0.183,0.08l-0.47,0.225l-0.175,0.029
	h-0.168l-0.104,0.031l-0.027,0.111l0.073,0.225l0.428,0.471l0.191,0.34l-0.091,0.268l0.153,0.201l-0.104,0.203l-0.153,0.176
	l0.016,0.145l0.05,0.166l0.324,0.266l0.142,0.209l0.347,0.674l0.179,0.229l-0.225,0.072l-0.175-0.098l-0.172-0.156l-0.211-0.098
	l0.076,0.158l0.23,0.248l0.045,0.084l0.042,0.207l0.225,0.424l0.004,0.281l0.237,0.447l0.07,0.191l0.019,0.207l-0.084,0.182
	l0.152,0.258l0.104,0.301l0.019,0.313l-0.099,0.303l-0.131-0.164l-0.096,0.021l-0.002,0.135l0.145,0.178l-0.104,0.158l0.1,0.127
	l0.339,0.172l-0.179,0.33l-0.058,0.18l-0.014,0.207l0.122,0.488l0.003,0.057l-0.125,0.158l0.068,0.35l0.149,0.369l0.13,0.199
	l0.088-0.102l0.007,0.256l-0.115,0.338l-0.073,0.361l0.135,0.355l0.205,0.172l0.066,0.1l0.022,0.176l-0.026,0.105l-0.11,0.164
	l-0.028,0.09l0.02,0.092l0.145,0.313l0.195-0.145l0.194-0.039l0.148,0.088l0.066,0.234l-0.035,0.145l-0.069,0.031l-0.057-0.094
	l-0.004-0.221l-0.397,0.18l-0.042,0.008l-0.095,0.084l-0.016,0.008l0.016,0.014l0.015,0.105l0.072,0.182l0.172,0.141l0.221,0.078
	l0.219,0.002l-0.08,0.064l-0.135,0.15l-0.046,0.064l0.07,0.098l0.076,0.068l0.091,0.053l0.114,0.041l-0.286-0.016l-0.149-0.053
	l-0.259-0.281l-0.019-0.043l-0.092-0.123l-0.096-0.072l-0.041,0.098l-0.012,0.295l0.039,0.139l0.099,0.057l0.069,0.111l0.188,0.547
	l0.091,0.469l0.134,0.184l0.195,0.121l0.221,0.094l-0.153,0.08l-0.106,0.08l-0.062,0.113l-0.014,0.172l0.217,0.096l0.038,0.043
	l-0.01,0.246l0.01,0.07l0.348,1.072l0.058,0.264l0.038,0.084l0.077,0.096l0.076,0.021l0.064-0.049l0.054,0.014l0.064,0.201v0.527
	l0.084,0.629l0.012-0.383l0.061-0.307l0.157-0.203l0.287-0.092l-0.11,0.156l-0.111,0.111l-0.088,0.123l-0.034,0.189v0.764
	l-0.039,0.09l-0.058,0.068l-0.076,0.068l0.042,0.129l0.091,0.064l0.091,0.031l0.042,0.043l0.054,0.156l0.145,0.107l0.195,0.053
	l0.211-0.008v0.096l-0.364,0.043l0.046,0.271l0.245,0.334l0.237,0.246l0.741,0.6l0.213,0.289l0.431,0.828l0.095,0.33l-0.035,0.559
	l0.035,0.16l0.122,0.082l0.207,0.051l0.359,0.047l-0.18,0.129l-0.007,0.115l0.057,0.137l0.092,0.4l0.115,0.252l0.141,0.213
	l0.126,0.102l0.064-0.072l0.444-0.285l0.102-0.051l0.092-0.109l0.217-0.033l0.466,0.008v0.092l-0.637,0.162l-0.339,0.129
	l-0.15,0.197l-0.026,0.105l-0.061,0.055l-0.062,0.078l-0.022,0.16l0.019,0.186l0.058,0.154l0.191,0.289l-0.064,0.322l0.19,0.205
	l0.252,0.066l0.13-0.109l0.877-0.484v0.084l-0.068,0.07l-0.014,0.064l0.045,0.061l0.114,0.068l-0.553,0.127l-0.138,0.061
	l-0.106,0.109l-0.111,0.172l-0.066,0.184l0.02,0.158l0.122-0.047l0.442,0.047l0.07,0.021l0.091,0.115l0.058,0.039l0.084,0.01
	l0.174-0.018l0.084,0.008l0.526,0.232l0.122,0.08l0.288,0.396l0.098,0.092l-0.044,0.045l-0.036,0.023l-0.038,0.018l-0.052,0.01
	l-0.115-0.252l-0.149-0.127l-0.428-0.164l-0.184,0.131l-0.165-0.049l-0.149-0.078l-0.148,0.043l-0.11,0.004l-0.715-0.051
	l0.347,0.398l0.215,0.16l0.263,0.064l0.267,0.008l0.168,0.057l0.106,0.158l0.707,2.367l0.088-0.096l0.098,0.215l-0.046,0.113
	l-0.268,0.164l-0.102,0.127l-0.084,0.168l-0.119,0.375l0.646,0.188l0.111,0.098l0.286,0.602l0.138,0.074l0.171,0.039l0.142,0.082
	l0.057,0.209l-0.061,0.385l-0.008,0.191l0.068,0.18l0.52,0.297l0.05,0.059l0.129,0.08l0.15,0.4l0.111,0.137l0.163,0.006l0.202-0.09
	l0.165-0.121l0.072-0.1l0.08-0.088l0.397-0.188l0.131-0.129l0.042,0.176l0.121,0.068l0.126,0.027l0.058,0.045l-0.032,0.156
	l-0.076,0.023l-0.11-0.035l-0.129-0.018l-0.215,0.049l-0.149,0.088l-0.118,0.152l-0.126,0.244l-0.103-0.123l-0.138-0.049
	l-0.149,0.02l-0.129,0.072l-0.054,0.143l-0.004,0.16l-0.061,0.076l-0.227-0.115l0.066,0.234l0.187,0.172l0.439,0.213l0.006,0.027
	l0.084,0.152l0.054,0.012l0.149-0.023l0.058,0.012l0.087,0.1l0.172,0.344l0.179-0.207l0.15-0.084l0.171,0.055l0.241,0.193
	l0.126,0.225l0.077,0.555l0.087,0.246l-0.117,0.113l0.014,0.145l0.1,0.125l0.141,0.059l0.179-0.045l0.138-0.078l0.149-0.041
	l0.187,0.076v0.088l-0.397,0.053l-0.153,0.189l0.008,0.289l0.1,0.35l-0.042,0.135l0.119,0.104l0.19,0.031l0.175-0.09l0.05-0.166
	l-0.023-0.184l0.023-0.164l0.203-0.096l-0.038,0.115l-0.004,0.068l0.042,0.16l0.064-0.059l0.054-0.008l0.141,0.066l-0.031,0.045
	l-0.03,0.096L314,394.055l0.165,0.076l0.53,0.623l-0.332-0.047l-0.045,0.059l0.122,0.17l-0.233-0.008l-0.145-0.287l-0.13-0.357
	l-0.191-0.229l0.027,0.324l0.257,0.488l0.09,0.467l0.066,0.092l0.064,0.068l0.03,0.107l0.004,0.332l0.03,0.16l0.084,0.125
	l0.114,0.234l0.035,0.564l0.152,0.225l0.112,0.055l0.801,0.281l0.118,0.1l-0.179,0.035l-0.303-0.016l-0.301-0.068l-0.175-0.123
	l-0.054,0.299l0.122,0.264l0.363,0.5l0.069,0.256l0.022,0.723l0.054,0.131l0.153,0.193l0.052,0.119l0.012,0.129l-0.018,0.268
	l0.006,0.129l0.119,0.264l0.401,0.523l0.18,0.314l0.42,0.537l0.148,0.42l0.237,0.463l0.106,0.795l0.302,1.057l0.172,0.418
	l0.195-0.531l0.148-0.139l0.172,0.217l-0.157,0.055l-0.008,0.063l0.165,0.154l0.145,0.227l0.099,0.053l0.188-0.021l-0.15,0.105
	l-0.175,0.066l-0.165,0.002l-0.122-0.084h-0.08l-0.015,0.135l-0.03,0.08l-0.058,0.02l-0.077-0.051l0.008,0.055l0.012,0.047
	l0.026,0.035l0.042,0.041l-0.028,0.193l0.081,0.707l-0.006,0.289l0.305,0.842l0.011,0.244l-0.003,0.285l0.08,0.096l-0.183-0.029
	l-0.038-0.305l-0.126-0.379l0.031,0.328l0.053,0.42l0.092,0.221l-0.064,0.15l0.083,0.201l0.138,0.227l0.099,0.221l0.233,0.881
	l0.054,0.535l0.141,0.65l0.05,0.135l0.088,0.068l0.026,0.152l0.012,0.313l0.081,0.248l0.06,0.08l0.119,0.111l-0.165,0.416
	l0.596,2.453l0.416,0.061l0.558-0.18l0.584-0.096l-0.102,0.152l-0.195,0.107l-0.207,0.064l-0.145,0.02l-0.108,0.051l-0.179,0.229
	l-0.099,0.07l-0.096-0.01l-0.332-0.164l0.034,0.172l0.087,0.115l0.116,0.1l0.102,0.141l0.035,0.129l-0.008,0.279l0.02,0.076
	l0.179,0.213l0.123,0.223l0.954,2.422l0.273,0.387l0.106,0.201l0.042,0.256l0.042,0.125l0.091,0.086l0.096,0.072l0.038,0.072
	l0.015,0.104l0.092,0.268l0.817,1.398l0.195,0.473l0.08,0.293l0.016,0.162l-0.008,0.158l0.107-0.113l0.073-0.115l0.088-0.086
	l0.164-0.035v0.086l-0.11,0.438l0.164,0.594l0.465,1.078l0.07,0.457l0.094,0.25l0.188,0.174l-0.019-0.045l0.042-0.059l0.077-0.055
	l0.072-0.012l0.076,0.088l0.061,0.061l0.078,0.021l0.083,0.074l0.389,0.455l-0.205-0.391l0.049-0.199l0.5-0.381l0.265,0.264
	l0.061,0.125l-0.191,0.053l-0.42-0.025l-0.03,0.096l0.148,0.283l0.149,0.189l0.172,0.137l0.199,0.078l0.217,0.027l0.152-0.051
	l0.24-0.221l0.169-0.08l-0.096,0.213l-0.038,0.166l0.046,0.129l0.175,0.111v0.08l-0.932-0.199l-0.241,0.047l0.215,0.424l0.313,0.348
	l0.042,0.133l0.038,0.049l0.214-0.088l0.091-0.002l1.593,1.764l0.309,0.428l0.691,1.67l-0.045,0.17l0.24,0.342l0.073,0.23
	l0.031,0.26l0.095,0.146l0.172,0.061l0.251,0.012l0.188,0.066l0.153,0.158l0.229,0.387l0.202,0.49l0.137,0.182l0.168-0.053
	l0.087,0.168l-0.039,0.1l-0.129,0.09l0.019,0.152l0.038,0.086l0.054,0.072l0.061,0.119l1.135,2.715l0.6,2.109l0.18,1.057l0.21,0.52
	l0.386,0.164l-0.064,0.072l-0.156,0.127l-0.039,0.064l0.011,0.131l0.062,0.098l0.069,0.086l0.03,0.086l0.058,0.232l0.763,1.535
	l0.103,0.496l0.138,0.17l0.325,0.309l0.098,0.195l0.139,0.559l0.022,0.258l0.064,0.219l0.452,0.615l0.187,0.523l0.221,1.049
	l0.187,0.523l0.092,0.178l0.13,0.16l0.167,0.053l0.222-0.129l0.099-0.211l-0.018-0.234L337,448.78l0.141,0.074l0.092,0.123
	l0.118,0.238l0.064,0.006l0.084-0.051l0.073-0.012l0.026,0.1l-0.007,0.092l-0.058,0.088l-0.012,0.088l-0.153,0.168l-0.591,0.336
	l0.006,0.195l0.084,0.133l0.004,0.115l-0.046,0.188l0.016,0.197l0.404,1.031l0.172,0.314l0.179,0.16l-0.091-0.227l-0.054-0.264
	l-0.023-0.51l-0.072-0.207l-0.126-0.215l-0.073-0.232l0.095-0.268l0.096,0.264l0.061,0.104l0.111,0.076l0.112,0.016l0.125,0.693
	l0.237,0.15l-0.057,0.252l0.11,0.49l0.203,0.336l0.217-0.199l0.119,0.176l0.486,0.48l0.057,0.205l0.274,0.479l0.107,0.24
	l0.031,0.256l-0.065,0.133l-0.091,0.125l-0.046,0.221l0.023,0.129l0.106,0.229l0.042,0.125l0.007,0.152l-0.03,0.232l0.022,0.137
	l0.108-0.057l0.095,0.133l0.058,0.223l0.004,0.59l0.057,0.277l0.004,0.26l-0.161,0.316l0.131,0.1l0.137,0.076l0.257-0.104
	l0.229,0.092l0.221,0.16l0.241,0.109l-0.329,0.398l-0.229,0.08l-0.301-0.129l-0.119,0.029l-0.618-0.117l-0.245-0.08l-0.052-0.184
	l0.247-1.135l0.08-0.168l0.092-0.156l0.076-0.164l0.019-0.207l-0.213-0.211l-0.115-0.256l-0.11-0.668l-0.008-0.172l0.03-0.281
	l-0.022-0.152l-0.081-0.176l-0.195-0.338l-0.062-0.182l-0.157,0.113l0.046,0.195l0.283,0.387l-0.111,0.338l0.123,0.795l-0.012,0.348
	h-0.092l-0.317-2.059l-0.064-0.232l-0.145,0.115l0.094,0.182l-0.061,0.109l-0.13,0.049l-0.11,0.014l0.046-0.068l0.05-0.168
	l0.007-0.201l-0.061-0.182l-0.073,0.186l-0.016,0.08l-0.129-0.07l-0.08-0.111l-0.039-0.139l-0.007-0.166l0.068-0.033l0.293,0.09
	l0.069-0.057l-0.08-0.252l-0.191-0.287l-0.228-0.152l-0.192,0.133l0.05,0.17l0.08,0.58l0.081,0.127l0.305,0.945l0.253,1.922
	l-0.077,0.32l0.259,1.779l0.645,2.137l1.006,2.287h0.08l-0.028-0.184l-0.386-0.977l-0.019-0.135l0.171,0.02l0.19,0.424l0.241,0.771
	h0.084l0.023-0.111l0.032-0.053l0.118-0.096l-0.084,0.516l0.008,0.186h-0.096l-0.012-0.102l-0.018-0.053l-0.026-0.047l-0.028-0.072
	l-0.026,0.295l0.366,0.756l0.138,0.42l0.172,0.256l0.038,0.148l0.011,0.166l0.046,0.205l0.084,0.184l0.126,0.098l-0.046-0.238
	l0.053-0.189l0.139-0.148l0.198-0.125l-0.046,0.193l-0.046,0.078l-0.088,0.084l0.092,0.18l0.096-0.143l0.137-0.389l0.076-0.084
	l0.299,0.145l0.175,0.025l0.08-0.129l0.064-0.061l0.153-0.072l0.176-0.035l0.129,0.043v0.094l-0.148,0.063l-0.179,0.045
	l-0.099,0.059l0.076,0.029l0.149,0.092l0.11,0.092l-0.042,0.047l-0.687-0.09l-0.126,0.066l-0.139,0.148l-0.103,0.176l-0.022,0.137
	l0.115,0.15l0.157-0.012l0.171-0.063l0.168,0.006l-0.138,0.096l-0.233,0.121l-0.229,0.049l-0.179-0.264l-0.138,0.012l-0.049,0.148
	l0.179,0.279l1.089,0.908l0.199,0.244l0.448,0.762l0.45,0.406l0.13,0.293l0.908,1.059l0.161,0.395l0.676,0.625l1.042,1.471
	l0.416,0.465l1.681,1.217l1.219,1.109l0.168,0.119l0.306,0.084l0.301,0.186l0.1,0.086l0.175,0.201l0.088,0.043l1.691,0.508
	l0.772,0.148l0.687-0.084l-0.054-0.404l0.432-0.311l0.614-0.213l1.372-0.229l0.198-0.096l0.318-0.432l0.161-0.168l2.444-1.473
	l0.492-0.205l0.215-0.033l0.088-0.119l0.212-0.744l0.096-0.107l0.344-0.328l0.11-0.143l0.062-0.133l0.179-1.334l-0.088-0.416
	l-0.263-0.404h0.355l-0.077-0.152l0.051-0.139l0.182-0.23l0.124-0.35l0.056-0.092l0.218-0.141l0.229-0.105l0.134-0.156l-0.064-0.289
	l-0.124,0.236l-0.148,0.053L362,467.913l-0.171,0.129l0.103-0.232l0.05-0.287l0.044-0.846l0.059-0.201l0.443-0.787l0.277-0.334
	l1.738-1.422l0.437-0.287l0.476-0.211l0.455-0.105l1.677-0.199l0.201-0.049l0.18-0.088l0.077-0.129l0.081-0.201l0.187-0.086
	l0.652-0.043l0.161-0.066l0.145-0.098l0.119-0.119l0.194-0.121l0.482-0.115l0.36-0.197l0.217-0.064l0.435-0.057h0.118l0.085,0.018
	l0.09,0.008l0.13-0.025l0.253-0.215l0.098-0.057l0.406-0.043l0.465,0.057l0.442,0.119l0.334,0.139l0.145-0.049l0.386,0.012
	l0.455-0.229l0.237,0.031l0.213,0.066l0.204-0.01l0.19,0.123l0.764,0.096l0.863,0.469l0.796,0.688l0.205,0.1l0.169-0.096
	l-0.194-0.221l-0.891-0.65l-0.179-0.17l-0.08-0.119l-0.028-0.074l-0.057-0.061l-0.061-0.084l-0.027-0.137l0.039-0.152l0.076-0.111
	l0.039-0.098l-0.057-0.117l-0.268-0.094l-0.286,0.137l-0.294,0.201l-0.279,0.105l-1.718-0.037l-0.516-0.109l-0.439-0.188
	l-1.012-0.895l-0.332-0.4l-0.229-0.461l-0.027-0.271l0.153-0.502l0.081-0.609l0.083-0.279l0.114-0.244l0.119-0.188l0.064-0.064
	l0.138-0.111l0.057-0.084l0.036-0.143l-0.005-0.119l0.015-0.111l0.73-1.016l0.492-0.443l0.207-0.258l0.083-0.301l0.035-0.055
	l0.225-0.254l0.26-0.525l0.736-1.002l0.508-0.514l0.486-0.324l-0.318-0.232l-0.122-0.395l-0.088-0.852l-0.011-0.188l0.042-0.164
	l0.107-0.121l0.172-0.045l0.096-0.064l0.014-0.15l-0.002-0.176l0.022-0.143l0.176-0.23l0.241-0.195l0.741-0.432l0.275-0.232
	l0.156-0.059l0.176,0.045l0.32,0.145l0.282,0.021l0.652-0.107l0.266-0.084v-0.088l-0.045-0.105l0.491,0.033l0.241-0.104l0.254,0.1
	l-0.041,0.088l-0.379,0.152l-0.11,0.02l-0.102-0.004l-0.065,0.035l0.012,0.133l0.049,0.053l0.088,0.02l0.21,0.016l2.266,0.48
	l0.161-0.047l0.014-0.152l-0.188-0.105l-0.351-0.09h-0.349l-0.105-0.033l-0.131-0.088l-0.103-0.053l-0.187-0.055l-0.191-0.035
	l-0.203-0.01l-0.206,0.01l0.093-0.182l0.148-0.057l1.563,0.246l0.289,0.158l-0.014,0.27l0.205,0.08l0.244-0.041l0.253-0.08
	l0.214-0.045l0.065-0.137l0.091-1.09l-0.053-2.205l-0.115-0.518l-0.008-2.082l-0.114-2.486l0.145-0.725l0.038-1.957l-0.255-1.328
	l-0.024-1l-0.041-0.051l-0.077-0.008l-0.339-0.156l-0.26-0.055l-0.219,0.063l-0.088,0.225l-0.125,0.066l-0.576,0.412l-0.168,0.088
	h-0.085l0.1-0.203l0.71-0.693l0.114-0.09l0.114-0.063l0.135-0.033l0.084,0.008l0.084,0.018h0.348l0.114-0.033l0.035-0.121
	l-0.069-0.666l-0.092-0.105l-0.207-0.027l0.063,0.064l0.019,0.082l-0.022,0.094l-0.059,0.111h-0.083l-0.069-0.5l-0.297-0.908
	l-0.066-0.525l0.027-0.254l0.115-0.479l0.045-0.504l0.24-1.223l0.085-0.244l0.134-0.1l0.213-1.059l0.314-0.697l0.068-0.334
	l0.115-0.174l0.029-0.07l-0.02-0.428l0.02-0.133l0.104-0.199l0.339-0.4l0.387-0.783l0.077-0.115l0.176-0.189l0.729-1.133l-0.4,0.25
	l-0.261,0.109l-0.118-0.053l0.107-0.152l0.672-0.336l0.256-0.264l0.402-0.703l0.03-0.037l0.048-0.043l0.296-0.172l0.109-0.145
	l0.269-0.498l0.053-0.201l0.439-0.746l0.298-0.744l0.047-0.184l0.021-0.258l0.142-0.602l0.096-0.236l0.229-0.357l0.08-0.193
	l0.064-0.461l0.23-0.66l0.145-0.939l0.073-1.566l0.172-0.928l0.038-0.492l0.049-0.119l0.232-0.248l0.073-0.125l-0.083-0.383
	l-0.004-0.139l0.092-0.232l0.129-0.207l0.104-0.229l0.02-0.299l-0.199,0.057l-0.058,0.025l0.054-0.207l0.023-0.232l0.049,0.025
	l0.131,0.055l0.025-0.363l0.119-0.645l0.03-0.359l-0.048-0.34l-0.127-0.486l-0.088-0.225l-0.169,0.043l-0.019,0.051l-0.068,0.131
	l-0.177-0.209l-0.229-0.139l-0.157-0.145l0.047-0.221l-0.156-0.004l-0.131-0.045l-0.103-0.078l-0.097-0.096l-0.094-0.031
	l-0.559-0.018l-0.285-0.063l-0.269-0.025l-0.159-0.059l-0.089-0.141l-0.134-0.328l-0.404-0.48l-0.164-0.27l-0.047-0.307l0.287-0.379
	l0.199-0.137l0.029-0.162l0.005-0.303l0.083,0.111l0.119,0.074l0.096,0.08l0.045,0.137l-0.045,0.32l0.045,0.15l0.18,0.107
	l0.076-0.391l0.004-1.027l0.134,0.125l0.394,0.516l0.171,0.459l0.608,0.668l0.775,1.947h0.087l-0.052-0.496l-0.64-1.451
	l-0.264-0.883l-0.134-0.217l-0.083-0.256l0.081-0.307l0.229-0.449l0.049-0.582l-0.152-0.508l-0.924-1.914l-0.18-0.514l-0.303-1.563
	l-0.029-0.58l0.152-0.463l-0.184-0.164l-0.183,0.105l-0.194,0.221l-0.223,0.193l-0.285,0.072l-0.055-0.133l0.111-0.195l0.187-0.1
	l0.019-0.037l0.196-0.234l0.137-0.053l0.379-0.027l0.114-0.174l0.281-0.711l0.195-0.258l0.049-0.58l-0.037-1.025l0.156-0.738
	l0.026-0.283l0.028-0.07l0.046-0.078l0.011-0.076l-0.085-0.08h-0.091l-0.301,0.068l-0.127,0.012l-0.092-0.08l0.24-0.113l0.111-0.078
	l0.076-0.09l0.034-0.17l-0.064-0.137l-0.089-0.152l-0.084-0.447l-0.099-0.131l-0.301-0.201l-0.143-0.127l-0.075-0.088l-0.031-0.123
	l-0.038-0.641l-0.409-2.033l0.004-0.281l-0.145-0.424l-0.093-0.512l-0.019-1.016l0.37-1.453l0.13-1.199l-0.025-0.109l0.389-0.85
	l0.069-0.23l0.172-0.236l0.408-0.418l0.138-0.184l0.214-0.389l0.138-0.188l-0.176-0.084l0.046-0.199l0.206-0.389l0.027-0.25
	l0.549-1.396l0.207-0.34l1.012-0.977l0.424-0.277l0.543-0.148l0.115-0.08l0.201-0.197l0.096-0.066l0.084-0.016l0.088-0.008
	l0.114-0.033l0.433-0.232l0.198-0.146l0.153-0.164h0.086l0.131,0.158l0.168-0.051l0.198-0.125l0.233-0.074l0.558-0.018l-0.03-0.063
	l0.033-0.088l0.093-0.09l0.076,0.006l0.077,0.051l0.102,0.033l0.578,0.039l0.302,0.061l0.202,0.115l0.336,0.545l0.068,0.5
	l-0.016,1.143l0.164-0.137l0.131-0.271l0.32-0.979l0.432-0.945l0.072-0.531l-0.058-0.551l-0.196-0.512l0.09,0.076l0.039,0.039
	l0.041,0.064l0.097-0.088l-0.055-0.139l0.055-0.129l0.118,0.406l0.037,0.213l0.012,0.229l-0.092,0.982l0.02,0.254l0.072,0.242
	l0.146,0.184l0.239,0.072l0.11,0.064l0.375,0.32l0.119,0.158l0.092,0.092l0.113,0.076l0.1,0.008l0.08-0.082l0.004-0.105
	l-0.084-0.256l-0.051-0.078l-0.072-0.098l-0.057-0.123l0.008-0.156l0.352-0.443l0.21-0.174l0.565-0.352l0.592-0.594l0.184-0.041
	l0.072-0.205l0.008-0.693l0.076-0.238l0.225-0.391l0.131-0.68l0.354-0.793l0.15-0.574l0.301-0.365l0.069-0.223l-0.046-0.174
	l-0.076-0.121l-0.015-0.119l0.137-0.164l0.729-0.455l0.18-0.031l0.171-0.049l0.185-0.008l0.199,0.088l0.145-0.123l0.148-0.074
	l0.16,0.004l0.161,0.113l0.049,0.104l-0.026,0.09l-0.061,0.105l-0.059,0.141l0.742-0.246l0.256-0.021l0.509,0.139l0.163-0.031
	l-0.111-0.279l0.215,0.008l0.153,0.072l0.057,0.119l-0.073,0.156l0.216,0.059l0.453,0.033l0.194,0.088l0.249-0.063l0.264,0.131
	l0.241,0.166l0.194,0.033h0.075l0.574-0.135l0.254-0.209l0.994-0.482l0.236-0.078l0.241-0.059l0.52-0.029l0.091-0.043l0.099-0.205
	l0.155-0.023l0.171,0.016l0.143-0.008l0.187-0.146l0.19-0.209l0.183-0.158l0.394,0.043l0.279-0.137l0.408-0.295l0.63-0.309
	l0.191-0.039l0.194-0.113l0.699-0.693l0.612-0.186l-0.143-0.145l-0.133-0.207l-0.058-0.188l0.072-0.096l0.092,0.035l0.067,0.203
	l0.06,0.049l0.114-0.023l0.01-0.064l-0.018-0.088l0.018-0.111l0.307-0.656l0.1-0.361l0.075-0.723l0.174-0.662l0.021-0.639
	l-0.017-0.635l-0.064-0.357l-0.152-0.268l0.107,0.416l0.045,0.439l0.017,0.42l-0.131,0.18l-0.22-0.115l-0.017,0.029l-0.076,0.033
	l-0.099,0.029l-0.07,0.008l-0.072-0.037l-0.057-0.063l-0.067-0.053l-0.384-0.119l-0.159-0.236l-0.058-0.293l0.025-0.279l0.49-0.91
	l0.098-0.416l0.157-0.217l0.382-0.348l0.356-0.484l0.222-0.219l0.441-0.172l0.153-0.182l0.215-0.377l0.289-0.307l3.074-1.877
	l0.5-0.139l0.482-0.311l0.52-0.129l0.21-0.133l0.192-0.146l0.179-0.104l0.064,0.152l0.104,0.016l0.611-0.447l0.095-0.035
	l0.214-0.057l0.076-0.047l0.26-0.258l0.295-0.234l0.423-0.201l0.443-0.318l1.046-0.387l0.313-0.221l0.164-0.092l0.172-0.037
	l0.203-0.084l-0.062-0.195l-0.268-0.357l0.432,0.01l0.104-0.053l0.162-0.139l0.265-0.119l0.126-0.088l-0.005-0.109l-0.075-0.061
	l-0.264-0.143l-0.283-0.094l-0.09-0.145l0.06-0.131l0.267-0.016l0.104,0.057l0.049,0.098l0.028,0.086l0.025,0.037l0.039,0.014
	l0.025,0.025l0.039,0.031l0.075,0.012l0.074-0.027l0.11-0.119l0.072-0.025l0.283-0.188l0.768-0.883l0.194-0.287l0.096-0.428
	l0.075-0.205l0.275-0.188l-0.006-0.234l-0.043-0.273l0.035-0.209l0.14,0.189l0.031,0.082h0.092l0.176-0.193l0.5-0.334l0.103-0.146
	l0.059-0.039l0.222-0.225l0.022-0.053l0.058-0.076l0.167-0.354l0.077-0.121l0.396-0.342l2.04-1.246l3.812-1.744l0.451-0.354
	l0.137-0.469l0.111-0.125l0.046-0.135l0.029-0.141l0.067-0.143l0.109-0.115l0.275-0.215l0.171-0.24l0.535-0.373l0.121-0.191
	l0.605-0.596l0.545-0.434l0.237-0.189l-0.302,0.205l-0.358,0.279l-0.342,0.213l-0.271-0.02l-0.145-0.123l0.117-0.195l0.035,0.02
	h0.286l0.115-0.02l0.084-0.053l0.226-0.186l0.076-0.041l0.26-0.092l0.21-0.213l0.264-0.416l0.672-0.467l0.114-0.121l0.054-0.227
	l0.142-0.236l1.18-1.26l0.077-0.27l1.051-1.586l0.431-0.191l0.184-0.205l0.252-0.422l0.522-0.672l0.127-0.342l0.344-0.494
	l0.022-0.08l-0.061-0.045l-0.096-0.018l-0.083,0.004l-0.055,0.051l-0.207,0.318l-0.064-0.127l-0.16-0.168l-0.034-0.074l0.013-0.168
	l0.129-0.195l0.031-0.137l0.064-0.113l0.148,0.125l0.176,0.199l0.138,0.107l0.198-0.072l1.024-1.318l1.562-1.375l0.929-0.648
	l1.401-1.367l0.756-0.574l0.565-0.242l0.649-0.52l0.549-0.246l1.047-0.496l0.974-0.512l0.456-0.283l-3.103,1.521l-0.351,0.035
	l0.037-0.086l-0.042-0.084l-0.175-0.195l0.068,0.023l0.119,0.027l0.072,0.031l0.023-0.205l0.094-0.121l0.102,0.01l0.044,0.184
	l0.088,0.121l0.191-0.045l0.207-0.117l0.117-0.09l0.035-0.063l0.021-0.154l0.031-0.064l0.049-0.031l0.173-0.076l0.034-0.027
	l-0.003-0.211l-0.02-0.123l-0.05-0.105l-0.1-0.154l-0.103,0.195l-0.114,0.018l-0.132-0.045l-0.166,0.006l-0.523,0.471l-0.61-0.184
	l-0.169-0.006l0.003,0.045l-0.145,0.236l-0.034,0.039l0.011,0.09l0.038,0.07l0.058,0.047l0.069,0.027v0.082l-0.188,0.096
	l-0.114,0.15l-0.134,0.121l-0.252,0.004v0.094l0.137,0.043l0.375,0.221l-0.126,0.055l-0.114,0.035l-0.104-0.01l-0.087-0.08
	l-0.037,0.207l0.072,0.15l0.01,0.133l-0.222,0.154l-0.083,0.018l-0.096-0.002l-0.11,0.012l-0.142,0.061l-0.069,0.074l-0.054,0.084
	l-0.072,0.074l-0.148,0.043l0.063-0.129l0.018-0.143l-0.018-0.145l-0.063-0.131l-0.106,0.16l-0.085,0.008l-0.053-0.107l-0.022-0.197
	l0.075-0.123l0.18-0.135l0.203-0.107l0.152-0.041v-0.102l-0.149-0.16l0.013-0.225l0.125-0.223l0.196-0.166l0.117-0.146l0.188-0.453
	l0.209-0.172l-0.043-0.313l0.228-0.383l0.318-0.355l0.271-0.232l0.127-0.074l0.156-0.057l0.176-0.037l0.191-0.014l0.694-0.588
	l0.527-0.561l0.302-0.221l0.294-0.086l0.169,0.025l0.479,0.156l0.533,0.1l0.167,0.08l-0.042,1.121l0.042,0.246l-0.08,0.117
	l-0.008,0.102l0.053,0.08l0.112,0.066l-0.223,0.104l-0.555,0.359l0.051-0.143l0.058-0.092l0.026-0.07l-0.047-0.068l-0.56,0.203
	l-0.337,0.1l-0.145,0.111l-0.031,0.043l-0.065-0.002l-0.061,0.01l-0.008,0.088l0.054,0.078l0.08,0.004l0.081-0.014l0.046,0.023
	l0.007,0.213l0.03,0.107l0.088,0.043l0.298-0.037l0.866-0.326l0.821-0.494l0.304-0.051l-0.028,0.066l-0.125,0.049l-0.023,0.059
	l0.76-0.389l0.383-0.088l0.247-0.123l0.126-0.031l0.424,0.018l0.139-0.018l0.247-0.102l0.478-0.297l0.535-0.098l1.577-0.479
	l0.233-0.033l0.072-0.051l0.111-0.098l0.125-0.059l0.132,0.066l0.145,0.113l0.134-0.01l0.281-0.154l1.982-0.729l1.314-0.727
	l-0.206-0.072l-0.183-0.127l-0.191-0.066l-0.15-0.029l-0.084-0.068l-0.069-0.094l-0.086-0.1l-0.02-0.051l-0.004-0.07l-0.008-0.078
	l-0.053-0.064l-0.055-0.016l-0.145,0.018l-0.062-0.002l-0.48-0.121l-0.21-0.094l-0.328-0.283l-0.253-0.123l-0.115-0.109
	l-0.053-0.121l-0.119-0.428l0.092-0.281h0.08l0.055,0.111l0.072,0.289l0.057,0.146l0.287,0.291l0.05,0.033l0.119,0.152l0.276,0.021
	l0.56-0.033l0.919,0.783l0.616,0.346l0.365-0.217l-0.152,0.004l-0.127-0.051l-0.094-0.098l-0.066-0.139l0.3-0.211l0.656-0.783
	l0.019-0.193l0.131-0.27l0.145-0.598l0.061-0.135l0.204-0.178l0.289-0.115l0.627-0.162l0.561-0.227l1.123-0.691l0.47-0.367
	l-0.438,0.303l-0.229,0.094l-0.099-0.123l0.099-0.133l0.229-0.15l0.249-0.123l0.152-0.051l0.213-0.205l0.325-0.467l0.198-0.492
	l-0.172-0.297l-0.08,0.303l-0.023,0.158l0.009,0.168l-0.241-0.143l-0.169,0.096l-0.179,0.191l-0.274,0.146l0.053-0.85l0.119-0.404
	l0.222-0.359l0.286-0.307l1.879-1.471l0.668-0.217l0.348-0.258l0.302-0.305l0.198-0.244l-0.125,0.104l-0.176,0.133l-0.311,0.129
	l-0.057-0.125l-0.05-0.057l-0.062-0.014l-0.091,0.014l-0.073-0.092l-0.091-0.055l-0.119-0.025l-0.148-0.012l0.103-0.148l0.165-0.051
	l0.182,0.027l0.161,0.088l0.131-0.092l0.038-0.107l-0.024-0.123l-0.064-0.143l-0.106-0.174l-0.08-0.051l-0.287,0.031l-0.588-0.041
	l-0.268-0.107l-0.137-0.217l0.477-0.102l0.253,0.008l0.221,0.094l0.149-0.342l-0.172-0.58l-1.363-3.131l-0.088-1.244l0.375-1.094
	l0.641-0.961l1.846-1.988l0.622-0.447l1.107-0.594l0.134-0.035l0.297,0.004l0.14-0.029l0.124-0.072l0.474,0.111l0.612-0.117
	l0.794-0.328l0.806-0.334l1.925-0.529l0.264-0.021l0.523,0.029l0.251-0.072l0.657-0.49l0.989-0.508l0.417-0.289l0.329-0.318
	l0.021-0.061l0.008-0.143l0.046-0.074l0.039-0.025l0.088-0.029l0.492-0.359l0.122-0.047l0.16-0.103l0.166-0.239l0.618-1.392
	l0.179-0.257l0.05-0.121l-0.023-0.143l-0.044-0.148l-0.028-0.146l0.069-0.048l0.454,0.002l0.336-0.191l0.371-0.342l0.297-0.401
	l0.119-0.367l-0.157-0.536l-0.363-0.31l-0.466-0.162l-0.48-0.104l-0.405-0.028l-0.213-0.053l-0.207-0.15l-0.336-0.393l-0.155-0.239
	l-0.07-0.205l-0.148-1.052l-0.165-0.577l-0.201-0.281v-0.085l0.267,0.008l0.157,0.151l0.072,0.246l0.019,0.284l0.038,0.24
	l0.177,0.501l0.034,0.283l0.067,0.205l0.157,0.234l0.301,0.347l0.23,0.172l0.206,0.042l0.206-0.065l0.222-0.148l0.05,0.313
	l0.47,0.232l0.588,0.205l0.416,0.234l0.064,0.215l0.122,0.702l0.119,0.299l-0.194,0.333l-0.534,0.681l-0.107,0.165l-0.076,0.195
	l-0.042,0.231l0.16,0.719l-0.038,0.113l-0.027,0.131l0.623,1.119l0.08,0.226l-0.107,0.193l0.115,0.367l-0.088,0.309l-0.164,0.271
	l-0.122,0.26l0.011,0.266l0.096,0.316l0.237,0.523l0.207-0.135l0.163,0.154l0.107,0.295l0.043,0.289l0.064,0.049l0.147,0.012
	l0.161-0.02l0.103-0.041l0.134-0.111l0.077-0.029l0.025-0.041l-0.018-0.137l-0.047-0.1l-0.168-0.148l-0.053-0.121l0.011-0.16
	l0.13-0.293l0.034-0.15l-0.021-0.305l-0.394-1.332l-0.031-0.318l0.146,0.012l0.209,0.238l0.104,0.217l0.05,0.258l0.031,1.508
	l0.067,0.314l0.153,0.061l0.173-0.135l0.124-0.281l0.043-0.186l0.008-0.145l-0.051-0.133l-0.229-0.275l-0.03-0.137l0.021-0.131
	l0.06-0.109l0.064,0.139l0.055,0.152l0.067,0.119l0.124,0.051l0.109-0.029l0.203-0.121l0.153-0.033l-0.127,0.367l0.012,0.539
	l0.118,0.42l0.211,0.014l0.209-0.158l0.194-0.068l0.184-0.105l0.153-0.271l0.045-0.26l-0.04-0.188l-0.177-0.381l-0.034-0.234
	l0.017-0.258l0.052-0.23l0.138-0.25l0.077-0.321l0.087-0.057l0.088,0.021l0.066-0.021l0.025-0.182l-0.046-0.249l-0.187-0.471
	l-0.034-0.25l0.082-0.264l0.143-0.163l0.096-0.157l-0.054-0.246l0.244,0.199l-0.003,0.282l-0.241,0.534l0.256,0.35l0.19,0.363
	l0.023,0.386l-0.252,0.432l-0.099,0.295l0.057,0.398l0.257,0.736l-0.085,0.104l-0.054,0.145l-0.026,0.174l-0.008,0.186l-0.026,0.158
	l-0.065,0.086l-0.088,0.07l-0.08,0.1l-0.096,0.344l0.077,0.293l0.24,0.135l0.39-0.127l-0.119-0.117l-0.06-0.141l0.008-0.15
	l0.075-0.145l0.104,0.178l0.179,0.086l0.168-0.033l0.077-0.184v-0.699l0.213,0.154l0.054-0.342l-0.095-0.918h0.083l0.181,0.105
	l0.137-0.172l0.084-0.291l0.034-0.246l-0.11-0.377l-0.255-0.012l-0.288,0.127l-0.21,0.035l0.013-0.059l-0.013-0.827l0.031-0.251
	l0.396-1.062l0.023-0.241l-0.023-0.583l0.051-0.218l0.225-0.318l0.074-0.245l-0.009-0.152l-0.069-0.259l-0.022-0.333l0.012-0.087
	l0.039-0.089l0.109-0.133l0.055-0.261l0.114-0.234l0.025-0.073l0.043-0.018l0.08-0.193l0.064-0.213l-0.012-0.082l0.249,0.008
	l0.038,0.264l-0.114,0.311l-0.214,0.15l-0.219,0.563v0.165l0.069,0.298l0.045,0.394l0.05,0.192l0.009,0.187l-0.089,0.244
	l-0.182,0.275l-0.055,0.127l-0.018,0.202l0.06,0.135l0.149,0.063l0.168-0.003l0.138-0.054l0.147,0.113l0.146-0.126l0.103-0.225
	l0.042-0.183l0.271-0.5l0.096-0.327l-0.155-0.146l-0.241-0.071l-0.08-0.171l0.025-0.212l0.084-0.193l0.131-0.18l0.183-0.164
	l0.217-0.11l0.245-0.018l-0.416,0.367l-0.19,0.226l-0.084,0.198l0.11,0.191l0.473,0.278l0.107,0.274l-0.061,0.241l-0.146,0.167
	l-0.171,0.134l-0.143,0.15l-0.064,0.192L495,296.679l-0.257,0.784l0.047,0.194l0.067,0.2l-0.232,1.532l0.038,0.258l0.428,0.93
	l-0.184,0.418l0.26,0.248l0.436,0.055l0.351-0.168l0.081-0.219l-0.068-0.193l-0.118-0.207l-0.064-0.26l0.004-0.137l0.021-0.104
	l0.064-0.063l0.131-0.023l0.076-0.059l0.058-0.135l0.077-0.268l0.067,0.227l0.027,0.123l-0.004,0.111l-0.042,0.049l-0.214,0.186
	l0.1,0.232l0.229,0.078l0.257-0.066l0.183-0.193l0.012-0.217l-0.211-0.426l-0.06-0.242l0.042-0.193l0.179-0.439l0.038-0.242h0.092
	l0.077,0.24l0.117,1.039l0.057,0.139l0.072,0.111l0.067,0.047l0.466,0.082l0.525,0.379l0.31,0.168l0.248-0.035l0.023-0.076
	l0.076-0.174l0.081-0.117l0.033,0.088l0.027,0.1l0.072,0.08l0.111,0.049l0.138,0.008l0.233-0.107l0.068-0.223l-0.035-0.553
	l-0.033-0.047l-0.188-0.418l-0.251-0.256l-0.054-0.072l-0.161-0.5l-0.191-1.12l-0.251-0.417l-0.347-0.278l-0.207-0.124l-0.179-0.053
	l-0.177-0.116l-0.165-0.272l-0.072-0.311l0.11-0.231h0.187l0.078,0.234l0.039,0.276l0.087,0.137l0.194,0.058l0.418,0.295
	l0.204,0.107l-0.015-0.216l0.062-0.119l0.126-0.022l0.171,0.08l0.307-0.181l0.057-0.387l-0.103-0.868l-0.038-0.168l-0.181-0.35
	l-0.042-0.217l0.04-0.208l0.072-0.15l0.042-0.148l-0.065-0.195l0.21,0.091l0.222-0.275l-0.027-0.328l-0.067-0.269l-0.108-0.227
	l-0.549-0.72l-0.122-0.284l0.183-0.124l-0.211-0.362l-0.068-0.165l-0.149-0.723v-0.132l0.031-0.141l0.11-0.178l0.024-0.107
	l-0.055-0.316l-0.233-0.538l-0.114-0.503l-0.149-0.119l-0.392-0.156l0.282-0.187l0.076-0.313l-0.054-0.365l-0.123-0.348
	l-0.156-0.287l-0.049-0.303l-0.046-0.175l-0.15-0.394l-0.029-0.247l0.083-0.185l0.146-0.173l0.135-0.208l0.054-0.182l0.049-0.265
	l0.023-0.264l-0.031-0.184l-0.145-0.138l-0.353-0.113l-0.148-0.181l-0.268-0.643l-0.135-0.213l-0.236-0.302l-0.048-0.153
	l0.008-0.266l0.114-0.389l0.033-0.699l0.172-0.344l0.685-0.73l0.336-0.28l0.114-0.129l0.064-0.146v-0.111l-0.072-0.064l-0.344,0.013
	l-0.111-0.029l-0.106-0.053l-0.885-0.305l-0.215-0.044l-0.164,0.026l-0.106,0.072l-0.089,0.079l-0.1,0.047l-0.133-0.002
	l-0.828-0.266l-0.169-0.152l-0.126-0.263l-0.008-0.297l0.114-0.264l0.305-0.487l0.612-1.626l0.03-0.295l-0.168-0.137l-0.168,0.129
	l-0.146,0.229l-0.161,0.063l-0.187-0.37l-0.132-0.063l-0.372-0.254l-0.213-0.23l-0.295-0.53l-0.19-0.204l-0.1-0.021l-0.249,0.027
	l-0.13-0.055l-0.121-0.133l-0.008-0.089l0.042-0.106l0.022-0.171l-0.06-0.051l-0.132-0.026l-0.117-0.06l-0.02-0.153l0.264-1.249
	l-0.016-0.126l-0.092-0.208v-0.13l0.065-0.147l0.184-0.291l0.064-0.159l0.003-0.125l-0.025-0.122l-0.016-0.125l0.041-0.131
	l0.199-0.162l0.249-0.013l0.264,0.024l0.239-0.05l0.169-0.133l0.48-0.47l0.122-0.157l0.039-0.247l-0.034-0.292l-0.077-0.263
	l-0.088-0.161l0.157-0.266l0.145-0.196l-0.003-0.13l-0.307-0.072l-0.038-0.172l-0.237-0.207l-0.064-0.157l0.021-0.126l0.08-0.287
	l0.014-0.16l-0.06-0.28v-0.131l0.067-0.168l0.132-0.121l0.278-0.106l0.197-0.094l0.039-0.119l0.146-0.216l0.045-0.126l-0.03-0.05
	l-0.03-0.226l-0.027-0.058l-0.067-0.543l-0.291-0.391l-0.412-0.254l-0.275-0.059l-0.134,0.314l-0.188,0.292L493.705,264l-0.623-0.21
	l-0.816-0.038l-0.291-0.062l-0.936-0.744l-3.311-1.733l-0.367-0.08l-0.023-0.096l-0.117-0.2l-0.112-0.145l-0.048-0.052l-0.013-0.068
	v-0.718l-0.042-0.084l-0.184-0.189l-0.125-0.282l-0.207-0.087l-0.241-0.071l0.07-0.416l0.102-0.251l0.165-0.241l0.061-0.604
	l0.138-0.058l0.16-0.028l0.092-0.129l0.016-0.187l0.038-0.168l0.08-0.095l0.165,0.027l0.121-0.25l0.177-0.174l0.122-0.176
	l-0.039-0.262l-0.164-0.48l-0.058-0.119l-0.068-0.072v-0.062l0.626-0.341l0.233-0.082l0.244,0.024l0.207,0.141l0.176,0.233
	l0.113,0.27l0.013,0.251l0.153,0.01l0.53,0.142l0.21,0.019l0.118-0.088l0.225-0.407l0.44-0.573l0.156-0.321l0.038-0.365l0.289-0.366
	l0.15-0.409l0.106-0.91l-0.033-0.782l0.122-0.23l0.431-0.077l0.206,0.057l0.397,0.157l0.34,0.092l0.058,0.029l0.057,0.004
	l0.146-0.035l0.087-0.059l0.157-0.175l0.114-0.041l0.443,0.011l0.382,0.077l0.758,0.282l0.751,0.077l0.104-0.077l0.13-0.301
	l0.083-0.099l0.101-0.022l0.08,0.029l0.084,0.047l0.862,0.305l0.325,0.021l-0.184-0.294l0.23-0.05l0.037-0.138l-0.037-0.183
	l0.013-0.188l0.112-0.148l0.473-0.348l0.089-0.134l0.033-0.141l-0.03-0.132l-0.092-0.113l-0.618,0.031l-0.298-0.042l-0.21-0.217
	l-0.077-0.062l-0.263-0.017l-0.129-0.034l-0.088-0.079l-0.299-0.372l-0.053-0.15l-0.012-0.134l-0.035-0.116l-0.138-0.1l-0.002-0.084
	l0.212-0.495l-0.016-0.297l-0.114-0.182l-0.159-0.142l-0.154-0.184l-0.11-0.095l-0.381-0.15l0.008,0.245l-0.127,0.058l-0.118-0.005
	l-0.115-0.019l-0.098,0.015l-0.135,0.112l-0.11,0.137l-0.11,0.11l-0.149,0.042l-0.264-0.063l-0.408-0.265l-0.249-0.12l-0.535-0.021
	l-0.262-0.05l-0.124-0.128l-0.099-0.2l-0.34-0.263l-0.13-0.277l-0.473-0.24l-0.182-0.174l-0.052-0.855l-0.332-0.376l-0.921-0.62
	l-0.76-0.888l-0.409-0.213l-0.566,0.166l-0.208,0.122l-0.249,0.109l-0.237,0.014l-0.16-0.174l-0.088-0.265l-0.058-0.119
	l-0.202-0.225v-0.126l0.02-0.121l-0.089-0.212l-0.095-0.617l0.037-0.066l0.066-0.043l0.068-0.101l0.233-0.792l0.244-0.467
	l0.317-0.251l0.088-0.266l-0.02-0.153l-0.068-0.079l-0.08-0.048l-0.042-0.07l-0.021-0.137l0.021-0.073l0.038-0.074l0.141-0.456
	l0.104-0.168l0.421-0.269l0.11-0.095l0.076-0.102l0.088-0.089l0.137-0.054l0.259-0.056l0.739-0.254l0.222-0.137l0.102-0.208
	l-0.019-0.511l0.046-0.203l0.192-0.269l0.189-0.175l0.592-0.375l0.096-0.119l0.061-0.129l0.07-0.061l0.132,0.085l0.08,0.039
	l0.119,0.005l0.127-0.014l0.095-0.025l0.278,0.043l-0.026-0.355l-0.252-0.757l-0.18-0.305l-0.335-0.159l-0.73-0.143l-0.294-0.13
	l-0.089,0.008l-0.045,0.097l-0.035,0.323l-0.057,0.083l-0.164-0.05l-0.096-0.188l-0.015-0.23l0.068-0.187v-0.002l0.164-0.276
	l0.259-0.898l0.097-0.203l0.152-0.261l0.161-0.167l0.115,0.077l0.018,0.26l-0.011,0.297l0.038,0.275l0.163,0.192l0.448,0.134
	l0.202,0.095l0.164,0.192l0.156,0.13l0.138,0.153l0.103,0.101l0.253,0.171l0.289,0.124l0.104,0.013l0.268-0.005l0.148,0.068
	l0.088,0.137l0.069,0.158l0.102,0.131l0.14,0.088l0.132,0.063l0.295,0.068l-0.059,0.114l-0.025,0.122l0.03,0.096l0.11,0.037
	l0.097,0.045l-0.016,0.245l0.075,0.105l0.291,0.146l0.168,0.135l0.035,0.172L494.848,236l-0.165,0.138l-0.462,0.235l-0.096,0.099
	l0.223,0.162l1.064-0.392l0.458,0.177l0.1,0.213l0.08,0.237l0.123,0.2l0.213,0.096l0.199-0.078l0.187-0.462l0.257-0.172l0.339,0.063
	l0.559,0.56l0.357,0.119l0.558-0.141l0.257-0.177l-0.068-0.261l-0.138-0.042l-0.149-0.005l-0.091-0.092l0.045-0.3l-0.117,0.079
	l-0.116,0.029l-0.1-0.033l-0.08-0.114l-0.118-0.399l-0.312-0.163l-0.364-0.124l-0.259-0.278l-0.008-0.238l0.103-0.262l0.156-0.234
	l0.161-0.153l0.207-0.103l0.118,0.035l0.114,0.118l0.201,0.15l0.143,0.071l0.19,0.218l0.115,0.098l0.137,0.055l0.278,0.072
	l0.11,0.091l0.063,0.169l-0.042,0.121l0.017,0.098l0.209,0.089l0.301,0.084l0.088,0.102l0.008,0.191l-0.106,0.06l-0.183-0.086
	l-0.146,0.019l0.009,0.376l0.08,0.229l0.251,0.42l0.096,0.223l0.104,0.848l0.096,0.25l0.156,0.182l0.836,0.363l0.188,0.122
	l0.129,0.173l0.08,0.271l0.107,0.127l0.443,0.205l0.302,0.353l0.232,0.16l0.254,0.114l0.205,0.023l0.206-0.118l0.15-0.138
	l0.148-0.002l0.191,0.286l0.057,0.026l0.062,0.008l0.063-0.008l0.065-0.023v-0.002l0.685-0.058l0.064,0.006l0.064,0.02l0.058,0.032
	l0.179,0.313l0.112,0.147l0.125,0.069l0.168-0.036l0.096-0.128l0.035-0.176l-0.016-0.189l0.106-0.379l0.55-0.462l0.108-0.237
	l-0.093-0.175l-0.169-0.004l-0.171,0.033l-0.126-0.063v-0.165l0.137-0.116l0.185-0.093l0.148-0.095l-0.232-0.031l-0.207-0.1
	l-0.084-0.174l0.134-0.255l0.085-0.074l0.082-0.044l0.093-0.007l0.259,0.077l0.009-0.068l-0.085-0.162l-0.026-0.425l0.088-0.116
	l0.271-0.091l0.229,0.044l0.069,0.208l-0.015,0.595l-0.02,0.055l0.029,0.029l0.153,0.073l0.096,0.015l0.251-0.024l0.112,0.008
	l0.149,0.121l0.075,0.208l0.054,0.23l0.104,0.19l0.164,0.233l0.015,0.172l-0.03,0.176l0.021,0.243l0.072,0.129l0.259,0.337
	l0.096,0.183l0.068,0.1l0.077,0.028l0.084-0.037l0.083-0.09h0.004l0.005-0.001l0.019-0.01l0.022-0.006l0.017,0.003l0.015,0.015
	l0.168,0.22l-0.038,0.191l-0.176,0.146l-0.248,0.085l0.237,0.145l0.197,0.018l0.1,0.082l-0.053,0.33l-0.542,0.961l-0.051,0.343
	l0.233,1.252l0.286,0.704l0.126,0.549l-0.115,0.978l-0.021,1.048l-0.287,1.061l-0.072,0.537l0.046,0.474l0.11,0.493l0.149,0.271
	l0.194,0.036l0.451-0.182l0.477-0.019l2.799,1.183l1.984,0.437l0.98,0.417l0.443,0.013l1.279-0.273l1.036,0.093l0.508-0.13
	l0.175,0.005l0.145,0.044l0.271,0.126l0.47,0.079l0.11-0.008l0.069-0.042l0.137-0.143l0.067-0.034l0.201,0.025l0.164,0.098
	l0.157,0.12l0.182,0.089l0.355,0.045l1.532-0.21l0.401-0.145l2.021-0.323l0.702,0.023l0.152-0.026l0.275-0.142l0.138-0.004
	l0.607,0.318l1.867,0.568l0.493,0.057l0.122-0.018l0.255-0.083l0.139-0.019l0.148-0.037l0.211-0.172l0.107-0.049l0.22,0.016
	l0.092,0.107l0.085,0.158l0.201,0.166l0.215,0.053l0.321,0.016l0.293-0.044l0.13-0.129l0.064-0.224l0.146-0.005l0.165,0.081
	l0.11,0.035l0.092-0.071l0.072-0.168l0.084-0.076l0.191-0.026l0.61,0.056l1.35-0.168l0.702,0.108l0.237-0.078l0.335-0.106
	l0.408,0.019l0.401,0.1l0.341,0.136l0.095,0.078l0.127,0.197l0.072,0.075l0.099,0.036l0.185,0.008l0.087,0.064l0.068,0.027
	l0.176-0.053l0.101,0.021l0.08,0.074l0.19,0.242l0.175,0.153l0.153,0.108l0.168,0.075l0.226,0.058l0.657,0.091l0.109,0.079
	l0.199,0.285l0.355,0.153l0.313,0.187l0.077,0.394l0.097,0.025l0.22,0.082l0.005,0.046l0.405,0.3l0.118,0.059l0.053,0.067
	l-0.106,0.095l0.313,0.136l0.118,0.116l0.095,0.221l0.038,0.241l-0.038,0.154l-0.172,0.274l-0.451,0.118l-0.774,0.258l-0.122-0.016
	l-0.092-0.044l-0.053-0.07l-0.017-0.104l-0.855-0.521l-0.484-0.161l-0.368,0.161l-0.067,0.231l0.055,0.245l0.166,0.444l0.023,0.224
	l-0.003,0.214l-0.035,0.215l-0.642,1.8l-0.123,0.536l-0.057,0.47l-0.064,0.209l-0.134,0.202l-0.183,0.15l-0.195,0.116l-0.152,0.153
	l-0.065,0.263l0.068,0.84l-0.045,0.39l-0.245,0.335l-0.321,0.146l-0.37,0.032l-1.054-0.091l-0.016,0.163l0.287,0.466l0.008,0.188
	l-0.241-0.095l-0.279-0.193l-0.114-0.104l-0.279,0.09l-0.042,0.246l0.135,0.549l-0.016,0.271l-0.271,1.17l-0.092,0.241l-0.159,0.103
	l-0.254-0.065l-0.386-0.382l-0.029-0.124l-0.023-0.308l-0.03-0.092l-0.135-0.005l-0.801-0.175l-0.127,0.183l0.034,0.261l0.08,0.28
	l0.008,0.238l-0.145,0.212l-0.221,0.083l-0.245-0.034l-0.229-0.145l-0.114-0.212l-0.223-0.555l-0.129-0.05l-0.058,0.164
	l-0.138,0.871l-0.101,0.292l-0.118,0.189l-0.187,0.124l-0.29,0.086l-0.519,0.062l-0.471-0.038l-0.956-0.208l-0.526,0.045
	l-0.152,0.353l-0.02,0.523l-0.129,0.561l-0.148,0.103l-0.139-0.024l-0.142-0.061l-0.168-0.012l-0.221,0.091l-0.169,0.15
	l-0.134,0.182l-0.428,0.764l-0.057,0.192l0.013,0.188l0.14,0.319l0.055,0.171l-0.039,0.258l-0.252,0.749l-0.131,0.225l-0.233,0.119
	l-0.236,0.021l-0.201,0.068l-0.119,0.265l0.054,0.299l0.202,0.108l0.207,0.076l0.08,0.208l-0.11,0.222l-0.181-0.014l-0.16,0.021
	l-0.043,0.329l0.058,0.238l0.368,0.687l0.095,0.243l0.106,0.447l0.118,0.225l0.104,0.099l0.221,0.137l0.08,0.125l0.03,0.104
	l0.063,0.341l0.166,0.582l0.132,0.274l0.16,0.123l0.164,0.043l0.041,0.081l-0.053,0.108l-0.126,0.127l-0.093,0.123l0.023,0.108
	l0.069,0.109l0.054,0.141l0.293,2.197l0.165,0.563l0.302,0.409l0.419,0.113l0.05-0.45l-0.236-1.145l-0.004-0.608l0.069-0.319
	l0.142-0.196l0.278-0.011l0.241,0.19l0.188,0.261l0.102,0.2l-0.003-0.011l0.046-0.094l0.004-0.012l0.08,0.109l0.005,0.092
	l-0.017,0.079l0.012,0.07l0.187,0.183l0.03,0.005l0.084,0.421l0.063,0.14l0.289,0.998l0.064,0.348l0.036,0.045l0.122,0.031
	l0.031,0.05l0.014,0.403l0.054,0.142l0.165,0.182l0.166,0.063l0.169,0.03l0.173,0.084l0.08,0.15l-0.004,0.136l0.038,0.046
	l0.205-0.115l0.078-0.101l0.045-0.131l0.062-0.11l0.115-0.049l0.088,0.018l0.086,0.031l0.093,0.019l0.088-0.019l0.171-0.063
	l0.341-0.075l0.157-0.098l0.095-0.105l0.211-0.195l0.09-0.1l0.211-0.321l0.016-0.053l-0.008-0.064l0.004-0.064l0.061-0.053
	l0.043-0.002l0.122,0.01l0.03-0.005l0.19-0.206l0.054-0.125l-0.046-0.159l-0.164-0.418l-0.191-0.94l-0.187-0.433l-0.069-0.546
	l0.24-0.671l0.367-0.64l0.329-0.446l0.202-0.178l0.698-0.302l0.203-0.146l0.164-0.182l0.287-0.481l0.018-0.537l-0.331-1.586
	l-0.023-0.522l0.026-0.294l0.081-0.181l0.175-0.008l0.157,0.188l0.161,0.255l0.525,0.6l0.194,0.1l0.296-0.075l0.217-0.191
	l0.413-0.574l0.203-0.231l0.534-0.184l0.251,0.384l0.13,0.524l0.169,0.237l0.191-0.185l0.16-0.631l0.209-0.125l0.261,0.141
	l0.03,0.293l-0.148,0.583l0.039,0.456l0.479,1.561l0.072,0.667l0.058,0.202l0.069,0.108l0.163,0.16l0.069,0.118l0.02,0.103
	l-0.02,0.189l0.02,0.095l0.061,0.09l0.169,0.131l0.045,0.068l0.012,0.124l-0.034,0.269l0.004,0.135l0.064,0.227l0.058,0.133
	l0.008,0.14l-0.084,0.245l-0.225,0.474l-0.055,0.205l-0.012,0.545l0.321,1.929l-0.012,0.949l0.096,0.459l0.236,0.357l0.421,0.169
	l0.185,0.23l0.109,1.06l0.087,0.413l0.146,0.203l0.344,0.297l0.133,0.206l0.058,0.209l0.089,1.047l-0.028,0.789l0.046,0.229
	l0.164,0.424l0.021,0.233l0.733,4.432l-0.02,0.344l-0.145,0.068l-0.188-0.004l-0.148,0.134l0.282,0.911l0.169,0.893l0.025,0.12
	l0.008,0.121l0.099-0.036l0.097-0.054l0.084-0.067l0.076-0.084l0.142-0.18l0.156-0.049l0.152-0.015l0.143-0.079l0.095-0.185v-0.186
	l-0.03-0.188v-0.199l0.076-0.265l0.03,0.013l0.063,0.017l0.056-0.036l0.012-0.139l-0.045-0.385l0.033-0.178l0.127-0.099l0.306,0.087
	l0.802,0.592l0.813,0.781l0.225,0.304l0.104,0.388l0.062,0.392l0.133,0.129l0.149-0.132l0.118-0.389l0.097-0.295l0.182-0.062
	l0.212,0.119l0.159,0.238l0.069,0.077l0.075,0.038l0.081-0.005l0.088-0.049l0.027-0.029l0.021-0.032l0.013-0.094l-0.005-0.095
	l-0.019-0.098l-0.038-0.093l-0.084-0.173l-0.038-0.182l0.022-0.178l0.229-0.451l0.127-0.098l0.152-0.037l0.229-0.096l-0.038-0.108
	l0.02-0.919l-0.024-0.101l0.032-0.077l0.148-0.058l0.118-0.008l0.336,0.058l0.229,0.072l0.172,0.136l0.191,0.085l0.282-0.086
	l-0.236-0.422l0.008-0.167l0.014-0.021l0.063,0.009l0.274-0.126l0.121-0.021l0.101-0.061l0.057-0.168l0.009-0.136l-0.104-1.589
	l-0.157-0.557l-0.451-0.48l-0.102-0.218l-0.135-0.448l-0.011-0.315l0.138-0.537l0.019-0.295l-0.075-0.266l-0.287-0.5l-0.099-0.261
	l-0.039-0.284l0.106-1.087l0.417-0.371l0.041,0.021l0.122-0.315l0.45-0.536l0.185-0.282l0.022-0.252l-0.08-0.275l-0.251-0.487
	l-0.101-0.291l-0.064-0.378l0.022-0.363l0.157-0.246l0.313-0.117l0.244,0.063l0.194,0.191l0.173,0.265l0.263,0.218l0.332-0.02
	l0.328-0.165l0.246-0.213l0.191-0.255l0.522-1.056l0.003-0.17l-0.025-0.165l-0.005-0.213l0.103-0.921l-0.057-0.576l0.019-0.237
	l0.08-0.223l0.249-0.351l0.042-0.117l0.007-0.123l-0.022-0.155l-0.076-0.798l0.003-0.383l0.406-2.645l-0.028-0.453l-0.052-0.144
	l-0.173-0.244l-0.076-0.144l-0.396-0.272l-0.21-1.595l0.011-0.49l-0.039-0.22l-0.052-0.094l-0.074-0.066l-0.106-0.133l-0.271-0.449
	l-0.099-0.225l-0.065-0.245l-0.026-0.292l0.026-0.338l0.084-0.313l0.157-0.221l0.332-0.122l0.248,0.145l0.359,0.563l0.126,0.16
	l0.412,0.42l0.081,0.187l0.041,0.175l0.097,0.123l0.233,0.034l0.263-0.022l0.39-0.222l0.21-0.077l0.083,0.04l0.066,0.098
	l0.076,0.071l0.122-0.031l0.077-0.068l0.06-0.09l0.051-0.106l0.026-0.109l0.309-0.189l0.608-0.029l0.637,0.079l0.405,0.14
	l0.501,0.685l0.262,0.129l1.006-0.126l0.366,0.085l0.355,0.14l0.436,0.109l0.289,0.054l0.723,0.398l0.203,0.163l0.179,0.255
	l0.18,0.204l0.218,0.013l0.188-0.21l0.041-0.278l-0.019-0.3l0.019-0.272l0.127-0.274l0.569-0.773l0.045-0.197l0.069-0.529
	l0.058-0.132l0.129-0.158l0.058-0.239l0.046-0.495l0.149-0.519l0.614-1.459l0.055-0.229l0.037-0.465l0.069-0.218l0.091-0.116
	l0.264-0.187l0.093-0.113l0.011-0.114l-0.042-0.239l0.003-0.083l0.142-0.159l0.157-0.109l0.111-0.158l0.03-0.556l0.088-0.165
	l0.145-0.119l0.191-0.121l0.172-0.702l0.096-0.197l0.147-0.147l0.566-0.366l0.153-0.318l0.262-0.945l0.108-0.221l0.183-0.034
	l0.157,0.001l0.156-0.021l0.172-0.104l0.152-0.189l0.104-0.237l0.045-0.258v-0.248l0.072-0.411l0.508-0.682l0.198-0.364l0.233-1.186
	l0.207-0.28l0.236-0.426l0.068-0.587l-0.091-0.577l-0.222-0.396l-0.455-0.217l-0.508-0.1l-0.453-0.168l-0.3-0.423l-0.038-0.571
	l0.73-2.074l0.282-0.456l0.366-0.39l0.409-0.29l0.243-0.089l0.438-0.054l0.236-0.071l0.225-0.179l0.324-0.529l0.181-0.229
	l0.109-0.047l0.249-0.004l0.118-0.061l0.012-0.06l-0.103-0.13l0.008-0.074l0.05-0.046l0.132-0.075l0.047-0.045l1.134-1.671
	l0.097-0.105l0.118-0.049l0.271-0.035l0.111-0.076l0.084-0.251l-0.023-0.314l-0.256-1.44l0.009-0.271l0.083-0.303l0.145-0.131
	l0.471-0.171l0.21-0.141l0.534-0.576l0.394-0.486l0.149-0.279l-0.016-0.295l-0.16-0.167l-0.45-0.146l-0.173-0.15l-0.123-0.94
	l0.05-0.118l0.097-0.109l0.058-0.104l-0.047-0.108l-0.098-0.054l-0.107-0.023l-0.104-0.039l-0.094-0.092l-0.157-0.423l-0.058-0.556
	l0.023-0.562l0.087-0.438l0.172-0.471l0.023-0.208l-0.054-0.268l-0.241-0.464l-0.025-0.224l0.175-0.27v-0.002l0.195-0.158
	l0.37-0.418l0.129-0.213l0.069-0.158l0.016-0.096l-0.004-0.088l0.042-0.402l0.046-0.104l0.122-0.129l0.111-0.058l0.279-0.067
	l0.124-0.056l0.104-0.11l0.175-0.269l0.119-0.095l0.232-0.04l0.198,0.29l0.271,0.029l0.233-0.074l0.466-0.226l0.97-0.319
	l0.227-0.139l0.37-0.475l0.286-0.587l0.344-0.472l0.523-0.135l0.29,0.053l0.255,0.005l0.211-0.106l0.152-0.289l0.127-0.333
	l0.137-0.181l0.199-0.08l0.58-0.068l0.169-0.07l0.125-0.158l0.326-0.561l0.542-0.674l0.339-0.136l0.715-0.132l0.344-0.182
	l0.348-0.342l0.279-0.403l0.458-0.887l0.484-0.676l0.769-0.551l0.865-0.391l3.347-0.574l0.844,0.04l0.194,0.066l0.264-0.026
	l0.264-0.085l0.194-0.112l0.253-0.309l0.11-0.242l0.138-0.114l0.344,0.072l0.114,0.068l0.077,0.07l0.089,0.043l0.159-0.008
	l0.13-0.074l0.21-0.23l0.142-0.057l0.229,0.013l0.236,0.063l0.44,0.206l0.222,0.158l0.16,0.178l0.263,0.455l0.149,0.179l0.401,0.344
	l0.076,0.113l-0.106,0.276l-0.119,0.237l0.013,0.224l0.285,0.24l1.738,0.805l0.11,0.105l0.089,0.117l0.098,0.102l0.143,0.063
	l0.125-0.01l0.241-0.106l0.131-0.017l0.16,0.06l0.099,0.089l0.103,0.047l0.164-0.067l0.05-0.09l0.127-0.365l0.022-0.109
	l-0.068-0.149l-0.106-0.085l-0.114-0.068l-0.093-0.103l-0.034-0.129l-0.008-0.255l-0.072-0.112l-0.348-0.365l-2.055-2.703
	l-0.299-0.505l-0.057-0.268l0.168-0.417l-0.023-0.208l-0.045-0.122l-0.046-0.262l-0.012-0.135l-0.038-0.13l-0.142-0.217l-0.05-0.142
	v-0.295l0.104-0.282l0.168-0.244l0.202-0.187l0.504-0.348l0.223-0.197l0.427-0.548l0.164-0.108l0.589-0.178h0.075l0.047-0.051
	l0.023-0.184l0.039-0.15l0.09-0.074l0.249-0.089l0.076-0.079l0.099-0.205l0.081-0.053l0.138-0.042l0.106-0.067l0.635-0.572
	l0.202-0.228l0.163-0.23l0.15-0.145l0.232-0.116l0.243-0.061l0.199,0.025l0.145,0.178l0.008,0.191l0.055,0.096l0.278-0.1
	l0.237-0.136l0.057-0.104l-0.022-0.166l-0.008-0.318l0.054-0.23l0.213-0.409l0.069-0.203L604.036,211.824z M297.726,473.61
	l-0.016-0.02l-0.057,0.01l-0.054,0.25l-0.122,0.203l-0.187,0.15l-0.241,0.094l-0.006-0.043l0.006-0.137h-0.086l0.022,0.238
	l0.107,0.076l0.153-0.041l0.15-0.094l0.119-0.129l0.225-0.48l-0.012-0.043V473.61z M293.83,436.602l-0.05,0.244l0.065,0.221
	l0.123-0.381l0.034-0.201l0.014-0.205l0.031-0.045l0.032-0.035l0.022-0.037l0.004-0.059h-0.088L293.83,436.602z M286.322,441.383
	l-0.084,0.236v0.268l0.195-0.344l0.152-0.361v-0.174l-0.137,0.168L286.322,441.383z M290.904,442.288l-0.019,0.016l0.004,0.047
	l0.094-0.086l-0.042,0.016L290.904,442.288z M304.975,450.356l-0.02,0.002l-0.014,0.043l0.042,0.031l0.019-0.012l0.012-0.031
	l0.022-0.025h-0.03L304.975,450.356z M292.035,445.065l-0.057,0.068l0.068-0.023l0.072-0.033l0.141-0.098l-0.004-0.033l0.012-0.021
	v-0.021l-0.022-0.014L292.035,445.065z M292.958,430.598l-0.052,0.076l0.052-0.012l0.042-0.029l0.096-0.061h-0.084L292.958,430.598z
	 M293.425,437.967l-0.03,0.029l-0.004,0.064l0.069-0.008l0.023-0.035l0.011-0.043l0.031-0.043l-0.054,0.025L293.425,437.967z
	 M305.158,441.659l0.012,0.031l0.046,0.002l0.102-0.037l-0.164-0.029L305.158,441.659z M304.806,450.997l-0.084,0.098l-0.049,0.115
	l-0.024,0.131l0.012,0.133l0.058-0.066l0.049-0.086l0.038-0.1l0.031-0.098l-0.015-0.094L304.806,450.997z M296.736,433.104
	l-0.002,0.1l0.014,0.117l0.042-0.064l0.026-0.07l0.032-0.156l-0.08,0.012L296.736,433.104z"/>
</svg>
